<svg xmlns="http://www.w3.org/2000/svg" width="189.321" height="72.714" viewBox="0 0 189.321 72.714">
  <g id="グループ_2" data-name="グループ 2" transform="translate(0 0.001)">
    <g id="グループ_157" data-name="グループ 157">
      <path id="パス_3" data-name="パス 3" d="M78.765,32.343l-1.7-6.48A3.267,3.267,0,0,0,75.4,19.785H71.658V32.343h1.975v-6.02h1.512l1.577,6.02ZM73.633,21.762H75.4a1.292,1.292,0,0,1,0,2.584h-1.77Z" transform="translate(55.178 15.234)" fill="#fff"/>
      <path id="パス_4" data-name="パス 4" d="M109.542,21.762V19.785h-5.937V32.343h5.937V30.366h-3.963V26.323h3.262V24.346h-3.262V21.762Z" transform="translate(79.778 15.234)" fill="#fff"/>
      <path id="パス_5" data-name="パス 5" d="M54.334,32.709a3.958,3.958,0,0,1-3.954-3.954V23.583a3.955,3.955,0,0,1,7.664-1.372l-1.851.685a1.98,1.98,0,0,0-3.837.687v5.172a1.979,1.979,0,1,0,3.958,0v-2.31H54.656V24.47h3.632v4.285a3.958,3.958,0,0,1-3.954,3.954" transform="translate(38.794 15.113)" fill="#fff"/>
      <path id="パス_6" data-name="パス 6" d="M97.069,32.709a3.957,3.957,0,0,1-3.954-3.954V23.583a3.954,3.954,0,0,1,7.662-1.372l-1.851.685a1.979,1.979,0,0,0-3.836.687v5.172a1.978,1.978,0,1,0,3.956,0v-2.31H97.39V24.47h3.634v4.285a3.958,3.958,0,0,1-3.954,3.954" transform="translate(71.7 15.113)" fill="#fff"/>
      <path id="パス_7" data-name="パス 7" d="M63.536,19.767l-3.3,12.588H62.28l.666-2.54h4.14l.667,2.54H69.8l-3.3-12.588Zm-.074,8.073,1.552-5.924,1.554,5.924Z" transform="translate(46.384 15.22)" fill="#fff"/>
      <path id="パス_8" data-name="パス 8" d="M84.994,19.767l-3.3,12.588h2.043l.667-2.54h4.14l.666,2.54h2.043l-3.3-12.588ZM84.92,27.84l1.552-5.924,1.552,5.924Z" transform="translate(62.905 15.22)" fill="#fff"/>
      <path id="パス_9" data-name="パス 9" d="M109.542,35.824V33.847h-5.937V46.405h5.937V44.428h-3.963V40.385h3.262V38.408h-3.262V35.824Z" transform="translate(79.778 26.062)" fill="#fff"/>
      <path id="パス_10" data-name="パス 10" d="M99.6,35.824V33.847H93.667V46.405H99.6V44.428H95.64V40.385H98.9V38.408H95.64V35.824Z" transform="translate(72.125 26.062)" fill="#fff"/>
      <path id="パス_11" data-name="パス 11" d="M88.642,35.824V33.847H82.706V46.405h1.974v-6.02h3.262V38.41H84.679V35.824Z" transform="translate(63.685 26.062)" fill="#fff"/>
      <path id="パス_12" data-name="パス 12" d="M54.334,46.771a3.972,3.972,0,0,0,3.71-2.584L56.193,43.5a1.98,1.98,0,0,1-3.837-.685V37.645a1.98,1.98,0,0,1,3.837-.687l1.851-.685a3.955,3.955,0,0,0-7.664,1.372v5.172a3.958,3.958,0,0,0,3.954,3.954" transform="translate(38.794 25.941)" fill="#fff"/>
      <path id="パス_13" data-name="パス 13" d="M64.646,33.69a3.958,3.958,0,0,0-3.954,3.954v5.174a3.954,3.954,0,0,0,7.908,0V37.642a3.957,3.957,0,0,0-3.954-3.952m1.979,9.126a1.979,1.979,0,0,1-3.958,0V37.644a1.979,1.979,0,0,1,3.958,0Z" transform="translate(46.734 25.941)" fill="#fff"/>
      <path id="パス_14" data-name="パス 14" d="M77.917,35.824V33.847H71.98V46.405h1.974v-6.02h3.262V38.41H73.954V35.824Z" transform="translate(55.426 26.062)" fill="#fff"/>
      <path id="パス_15" data-name="パス 15" d="M52.223,39.156a27.878,27.878,0,0,1-6.19,4.06l9.326,16.151H12.8L34.08,22.513l4.506,7.808a13.034,13.034,0,0,0,5.947-4.48L34.08,7.733,0,66.76H68.16Z" transform="translate(0 5.954)" fill="#fff"/>
      <path id="パス_16" data-name="パス 16" d="M29.735,0A24.057,24.057,0,0,0,10.85,39l4.119-7.131a16.911,16.911,0,1,1,12.057,8.678l-3.866,6.7A24.082,24.082,0,1,0,29.735,0" transform="translate(4.345 -0.001)" fill="#fff"/>
    </g>
  </g>
</svg>
