<svg id="logo-sp" xmlns="http://www.w3.org/2000/svg" width="86.406" height="135.621" viewBox="0 0 86.406 135.621">
  <path id="パス_5931" data-name="パス 5931" d="M27.41,78.348l-1.468-5.591a2.818,2.818,0,0,0-1.432-5.244H21.279V78.348h1.7V73.154h1.3l1.361,5.194Zm-4.427-9.129H24.51a1.115,1.115,0,1,1,0,2.23H22.983Z" transform="translate(11.217 35.588)" fill="#fff"/>
  <path id="パス_5932" data-name="パス 5932" d="M58.348,69.219V67.513H53.226V78.348h5.122V76.642H54.929V73.154h2.814V71.448H54.929v-2.23Z" transform="translate(28.057 35.588)" fill="#fff"/>
  <path id="パス_5933" data-name="パス 5933" d="M3.412,78.642A3.415,3.415,0,0,1,0,75.23V70.768a3.412,3.412,0,0,1,6.612-1.184l-1.6.591a1.708,1.708,0,0,0-3.311.593V75.23a1.707,1.707,0,0,0,3.415,0V73.238H3.69v-1.7H6.825v3.7a3.416,3.416,0,0,1-3.413,3.412" transform="translate(0 35.505)" fill="#fff"/>
  <path id="パス_5934" data-name="パス 5934" d="M46.148,78.642a3.414,3.414,0,0,1-3.412-3.412V70.768a3.411,3.411,0,0,1,6.611-1.184l-1.6.591a1.707,1.707,0,0,0-3.309.593V75.23a1.707,1.707,0,1,0,3.413,0V73.238H46.424v-1.7h3.135v3.7a3.415,3.415,0,0,1-3.412,3.412" transform="translate(22.527 35.505)" fill="#fff"/>
  <path id="パス_5935" data-name="パス 5935" d="M12.7,67.5,9.858,78.356h1.761l.574-2.191h3.572l.576,2.191H18.1L15.255,67.5Zm-.064,6.965,1.339-5.111,1.341,5.111Z" transform="translate(5.196 35.579)" fill="#fff"/>
  <path id="パス_5936" data-name="パス 5936" d="M34.162,67.5,31.314,78.356h1.762l.576-2.191h3.572l.574,2.191h1.762L36.714,67.5ZM34.1,74.46l1.339-5.111,1.339,5.111Z" transform="translate(16.507 35.579)" fill="#fff"/>
  <path id="パス_5937" data-name="パス 5937" d="M58.348,83.281V81.575H53.226V92.41h5.122V90.7H54.929V87.216h2.814V85.51H54.929v-2.23Z" transform="translate(28.057 43.001)" fill="#fff"/>
  <path id="パス_5938" data-name="パス 5938" d="M48.409,83.281V81.575H43.287V92.41h5.122V90.7H44.99V87.216H47.8V85.51H44.99v-2.23Z" transform="translate(22.818 43.001)" fill="#fff"/>
  <path id="パス_5939" data-name="パス 5939" d="M37.448,83.281V81.575H32.326V92.41h1.7V87.216h2.814v-1.7H34.029V83.281Z" transform="translate(17.04 43.001)" fill="#fff"/>
  <path id="パス_5940" data-name="パス 5940" d="M3.412,92.7a3.427,3.427,0,0,0,3.2-2.23l-1.6-.591A1.708,1.708,0,0,1,1.7,89.292V84.83a1.708,1.708,0,0,1,3.311-.593l1.6-.591A3.412,3.412,0,0,0,0,84.83v4.462A3.415,3.415,0,0,0,3.412,92.7" transform="translate(0 42.917)" fill="#fff"/>
  <path id="パス_5941" data-name="パス 5941" d="M13.725,81.418a3.415,3.415,0,0,0-3.412,3.412v4.464a3.412,3.412,0,0,0,6.823,0V84.828a3.414,3.414,0,0,0-3.412-3.41m1.707,7.874a1.707,1.707,0,0,1-3.415,0V84.83a1.707,1.707,0,0,1,3.415,0Z" transform="translate(5.436 42.918)" fill="#fff"/>
  <path id="パス_5942" data-name="パス 5942" d="M26.723,83.281V81.575H21.6V92.41h1.7V87.216h2.815v-1.7H23.3V83.281Z" transform="translate(11.387 43.001)" fill="#fff"/>
  <path id="パス_5943" data-name="パス 5943" d="M54.093,34.844a24.1,24.1,0,0,1-5.342,3.5L56.8,52.282H20.081l18.359-31.8,3.888,6.736a11.253,11.253,0,0,0,5.131-3.865L38.44,7.733,9.037,58.66H67.844Z" transform="translate(4.764 4.076)" fill="#fff"/>
  <path id="パス_5944" data-name="パス 5944" d="M35.465,0A20.755,20.755,0,0,0,19.172,33.652L22.725,27.5a14.591,14.591,0,1,1,10.4,7.488l-3.335,5.777A20.778,20.778,0,1,0,35.465,0" transform="translate(7.738)" fill="#fff"/>
  <path id="パス_5929" data-name="パス 5929" d="M27.095,58.333l.66-2.517-.62-2.366H22.049l-.618,2.366.66,2.517-.893,3.4.661,2.52h5.469l.66-2.52Zm-3.729-3.176h2.456l.171.66-.513,1.964H23.708l-.516-1.964Zm2.647,7.394H23.173l-.212-.815.589-2.251h2.085l.591,2.251Z" transform="translate(11.174 28.176)" fill="#fff"/>
  <path id="パス_5930" data-name="パス 5930" d="M32.831,53.433,29.984,64.294h1.762l.574-2.191h3.572l.576,2.191h1.762L35.382,53.433ZM32.766,60.4l1.339-5.111L35.447,60.4Z" transform="translate(15.806 28.166)" fill="#fff"/>
</svg>
