<svg xmlns="http://www.w3.org/2000/svg" width="22.496" height="173.696" viewBox="0 0 22.496 173.696">
  <path id="パス_3190" data-name="パス 3190" d="M19.92,35l-3.488-7.392h-8.8L4.176,35H.784L10.96,13.3H13.1L23.28,35ZM9.136,24.344H14.96L12.048,18.1Zm9.68,37.328A4.7,4.7,0,0,1,20.592,63.9a8.12,8.12,0,0,1,.5,2.864,6.6,6.6,0,0,1-1.5,4.544A5.592,5.592,0,0,1,15.168,73H3.008V51.3H14.976a5.231,5.231,0,0,1,2.3.48,4.716,4.716,0,0,1,1.648,1.3,5.677,5.677,0,0,1,.992,1.9,7.765,7.765,0,0,1,.336,2.3,8.749,8.749,0,0,1-.32,2.32A5.067,5.067,0,0,1,18.816,61.672ZM6.048,69.736h8.928a3.341,3.341,0,0,0,2.336-.688,3.941,3.941,0,0,0-.112-4.736,3.629,3.629,0,0,0-2.48-.752H6.048Zm8.8-9.5a2.451,2.451,0,0,0,1.136-.24,1.958,1.958,0,0,0,.736-.64,2.585,2.585,0,0,0,.384-.928,5.471,5.471,0,0,0,.112-1.136,3.609,3.609,0,0,0-.48-1.968,1.962,1.962,0,0,0-1.792-.752h-8.9v5.664Zm-2.912,51.184a11.638,11.638,0,0,1-4.48-.832,9.946,9.946,0,0,1-3.44-2.32,10.421,10.421,0,0,1-2.208-3.552,12.748,12.748,0,0,1-.784-4.56,13.079,13.079,0,0,1,.752-4.48A9.984,9.984,0,0,1,7.392,89.72a11.43,11.43,0,0,1,4.544-.864A11.407,11.407,0,0,1,17.28,90.1l.192.1a9.8,9.8,0,0,1,2.384,1.84,10.1,10.1,0,0,1,1.664,2.368A11.563,11.563,0,0,1,22.5,97.16a13.9,13.9,0,0,1,.32,2.992,12.943,12.943,0,0,1-.752,4.464A10.493,10.493,0,0,1,19.9,108.2a9.754,9.754,0,0,1-3.424,2.368A11.618,11.618,0,0,1,11.936,111.416Zm7.84-11.264a9.209,9.209,0,0,0-.56-3.3,6.969,6.969,0,0,0-4.048-4.128,8.637,8.637,0,0,0-3.232-.576,8.985,8.985,0,0,0-3.248.56,6.805,6.805,0,0,0-2.48,1.616,7.321,7.321,0,0,0-1.584,2.528,9.927,9.927,0,0,0-.016,6.528,7.251,7.251,0,0,0,1.552,2.528,6.823,6.823,0,0,0,2.464,1.632,8.947,8.947,0,0,0,3.312.576,8.856,8.856,0,0,0,3.232-.56,6.937,6.937,0,0,0,2.464-1.6,7.154,7.154,0,0,0,1.584-2.512A9.209,9.209,0,0,0,19.776,100.152Zm-7.664,45.936a6.591,6.591,0,0,0,2.864-.56,5.039,5.039,0,0,0,1.9-1.552,6.752,6.752,0,0,0,1.088-2.32,11.148,11.148,0,0,0,.352-2.864l.1-11.52H21.36v11.072a16.775,16.775,0,0,1-.512,4.176,10.246,10.246,0,0,1-1.616,3.52,8.058,8.058,0,0,1-2.864,2.432,9.155,9.155,0,0,1-4.256.912,9.2,9.2,0,0,1-4.16-.88,7.973,7.973,0,0,1-2.88-2.384,10.333,10.333,0,0,1-1.664-3.52,16.271,16.271,0,0,1-.544-4.256V127.272H5.84L5.9,138.76a11.845,11.845,0,0,0,.336,2.88,6.222,6.222,0,0,0,1.088,2.32,5.393,5.393,0,0,0,1.92,1.552A6.434,6.434,0,0,0,12.112,146.088Zm10.8,19.216v3.232H13.536V187H10.528V168.536H1.12V165.3Z" transform="translate(-0.784 -13.304)" fill="#676059"/>
</svg>
