<svg xmlns="http://www.w3.org/2000/svg" width="22.496" height="212.048" viewBox="0 0 22.496 212.048">
  <path id="パス_3192" data-name="パス 3192" d="M7.92,0,4.432-7.392h-8.8L-7.824,0h-3.392L-1.04-21.7H1.1L11.28,0ZM-2.864-10.656H2.96L.048-16.9ZM-.048,18.9a7.1,7.1,0,0,0-3.12.656A6.561,6.561,0,0,0-5.44,21.328,7.773,7.773,0,0,0-6.816,23.9a10.508,10.508,0,0,0,0,6.176A7.593,7.593,0,0,0-5.44,32.64,6.648,6.648,0,0,0-3.168,34.4a7.1,7.1,0,0,0,3.12.656,8.17,8.17,0,0,0,2.96-.512A7.428,7.428,0,0,0,5.248,33.12a8.634,8.634,0,0,0,1.728-2.192,14.9,14.9,0,0,0,1.2-2.784l2.464,2.272a10.193,10.193,0,0,1-.672,1.552A18.055,18.055,0,0,1,9.04,33.52a13.519,13.519,0,0,1-1.1,1.44,11.361,11.361,0,0,1-1.2,1.184,10.238,10.238,0,0,1-6.784,2.24,9.84,9.84,0,0,1-4.3-.912,9.73,9.73,0,0,1-3.232-2.464,11.113,11.113,0,0,1-2.048-3.632,13.307,13.307,0,0,1-.72-4.384,13.621,13.621,0,0,1,.688-4.336,10.879,10.879,0,0,1,2.016-3.632,9.771,9.771,0,0,1,3.248-2.5A9.876,9.876,0,0,1-.048,15.6a11.929,11.929,0,0,1,3.728.56,9.186,9.186,0,0,1,3.056,1.68,9.256,9.256,0,0,1,1.2,1.152,16.462,16.462,0,0,1,1.12,1.424A13.692,13.692,0,0,1,10,21.968a8.669,8.669,0,0,1,.64,1.568l-2.464,2.3A8.566,8.566,0,0,0,7.5,24.016,11.376,11.376,0,0,0,6.448,22.3,11.105,11.105,0,0,0,5.12,20.816,7.44,7.44,0,0,0,3.568,19.7,7.606,7.606,0,0,0-.048,18.9Zm0,38a7.1,7.1,0,0,0-3.12.656A6.561,6.561,0,0,0-5.44,59.328,7.773,7.773,0,0,0-6.816,61.9a10.508,10.508,0,0,0,0,6.176A7.593,7.593,0,0,0-5.44,70.64,6.648,6.648,0,0,0-3.168,72.4a7.1,7.1,0,0,0,3.12.656,8.17,8.17,0,0,0,2.96-.512A7.428,7.428,0,0,0,5.248,71.12a8.634,8.634,0,0,0,1.728-2.192,14.9,14.9,0,0,0,1.2-2.784l2.464,2.272a10.193,10.193,0,0,1-.672,1.552A18.055,18.055,0,0,1,9.04,71.52a13.519,13.519,0,0,1-1.1,1.44,11.36,11.36,0,0,1-1.2,1.184,10.238,10.238,0,0,1-6.784,2.24,9.84,9.84,0,0,1-4.3-.912,9.73,9.73,0,0,1-3.232-2.464,11.113,11.113,0,0,1-2.048-3.632,13.307,13.307,0,0,1-.72-4.384,13.621,13.621,0,0,1,.688-4.336,10.879,10.879,0,0,1,2.016-3.632,9.771,9.771,0,0,1,3.248-2.5A9.876,9.876,0,0,1-.048,53.6a11.929,11.929,0,0,1,3.728.56,9.186,9.186,0,0,1,3.056,1.68,9.255,9.255,0,0,1,1.2,1.152,16.463,16.463,0,0,1,1.12,1.424A13.691,13.691,0,0,1,10,59.968a8.669,8.669,0,0,1,.64,1.568l-2.464,2.3A8.565,8.565,0,0,0,7.5,62.016,11.376,11.376,0,0,0,6.448,60.3,11.1,11.1,0,0,0,5.12,58.816,7.44,7.44,0,0,0,3.568,57.7,7.606,7.606,0,0,0-.048,56.9ZM9.376,114H-8.7V92.3H9.376v3.264H-5.7v5.472H2.688V104.3H-5.7v6.432H9.376ZM.1,139.584q1.568.192,3.248.48a11.736,11.736,0,0,1,3.088.96,6.178,6.178,0,0,1,2.32,1.888,5.257,5.257,0,0,1,.912,3.232,6,6,0,0,1-.608,2.8,5.487,5.487,0,0,1-1.632,1.92,7.164,7.164,0,0,1-2.352,1.12,10.439,10.439,0,0,1-2.8.368,12.165,12.165,0,0,1-3.5-.512,14.119,14.119,0,0,1-3.232-1.424,15.205,15.205,0,0,1-2.8-2.16,15.99,15.99,0,0,1-2.24-2.72l.64-4.64a19.326,19.326,0,0,0,1.92,3.12,14.306,14.306,0,0,0,2.528,2.608,12.14,12.14,0,0,0,3.1,1.792,9.726,9.726,0,0,0,3.616.672,9.431,9.431,0,0,0,1.52-.128,4.74,4.74,0,0,0,1.408-.448,2.764,2.764,0,0,0,1.024-.9,2.524,2.524,0,0,0,.4-1.472,1.976,1.976,0,0,0-.688-1.7,5.2,5.2,0,0,0-1.712-.8,24.274,24.274,0,0,0-4.448-.768q-1.5-.16-3.136-.48a11.491,11.491,0,0,1-2.992-1.008A6.21,6.21,0,0,1-8.56,139.5a5.147,5.147,0,0,1-.88-3.12,6.734,6.734,0,0,1,.608-2.976,5.6,5.6,0,0,1,1.664-2.048A7.146,7.146,0,0,1-4.7,130.176a11.391,11.391,0,0,1,3.008-.384,9.844,9.844,0,0,1,3.28.544,12.142,12.142,0,0,1,2.9,1.472,12.924,12.924,0,0,1,2.448,2.208,15.631,15.631,0,0,1,1.9,2.752l-.672,4.224a29.446,29.446,0,0,0-2.336-3.584,15.042,15.042,0,0,0-3.04-3.008,7.492,7.492,0,0,0-4.544-1.312,9.927,9.927,0,0,0-1.7.144,4.889,4.889,0,0,0-1.488.5A2.773,2.773,0,0,0-6,134.72a3.1,3.1,0,0,0-.4,1.664,2.016,2.016,0,0,0,.448,1.376,3.005,3.005,0,0,0,1.168.768,12.163,12.163,0,0,0,1.7.544,16.158,16.158,0,0,0,1.776.336Q-.448,139.52.1,139.584Zm0,38q1.568.192,3.248.48a11.736,11.736,0,0,1,3.088.96,6.178,6.178,0,0,1,2.32,1.888,5.257,5.257,0,0,1,.912,3.232,6,6,0,0,1-.608,2.8,5.487,5.487,0,0,1-1.632,1.92,7.164,7.164,0,0,1-2.352,1.12,10.439,10.439,0,0,1-2.8.368,12.165,12.165,0,0,1-3.5-.512,14.119,14.119,0,0,1-3.232-1.424,15.205,15.205,0,0,1-2.8-2.16,15.99,15.99,0,0,1-2.24-2.72l.64-4.64a19.326,19.326,0,0,0,1.92,3.12,14.306,14.306,0,0,0,2.528,2.608,12.14,12.14,0,0,0,3.1,1.792,9.726,9.726,0,0,0,3.616.672,9.431,9.431,0,0,0,1.52-.128,4.74,4.74,0,0,0,1.408-.448,2.764,2.764,0,0,0,1.024-.9,2.524,2.524,0,0,0,.4-1.472,1.976,1.976,0,0,0-.688-1.7,5.2,5.2,0,0,0-1.712-.8,24.274,24.274,0,0,0-4.448-.768q-1.5-.16-3.136-.48a11.491,11.491,0,0,1-2.992-1.008A6.21,6.21,0,0,1-8.56,177.5a5.147,5.147,0,0,1-.88-3.12,6.734,6.734,0,0,1,.608-2.976,5.6,5.6,0,0,1,1.664-2.048A7.146,7.146,0,0,1-4.7,168.176a11.391,11.391,0,0,1,3.008-.384,9.844,9.844,0,0,1,3.28.544,12.142,12.142,0,0,1,2.9,1.472,12.924,12.924,0,0,1,2.448,2.208,15.631,15.631,0,0,1,1.9,2.752l-.672,4.224a29.446,29.446,0,0,0-2.336-3.584,15.042,15.042,0,0,0-3.04-3.008,7.492,7.492,0,0,0-4.544-1.312,9.927,9.927,0,0,0-1.7.144,4.889,4.889,0,0,0-1.488.5A2.773,2.773,0,0,0-6,172.72a3.1,3.1,0,0,0-.4,1.664,2.016,2.016,0,0,0,.448,1.376,3.005,3.005,0,0,0,1.168.768,12.163,12.163,0,0,0,1.7.544,16.158,16.158,0,0,0,1.776.336Q-.448,177.52.1,177.584Z" transform="translate(11.216 21.696)" fill="#676059"/>
</svg>
