<svg xmlns="http://www.w3.org/2000/svg" width="22.496" height="136.4" viewBox="0 0 22.496 136.4">
  <path id="パス_3191" data-name="パス 3191" d="M-.048-19.1a7.1,7.1,0,0,0-3.12.656A6.561,6.561,0,0,0-5.44-16.672,7.773,7.773,0,0,0-6.816-14.1a10.11,10.11,0,0,0-.464,3.088A10.11,10.11,0,0,0-6.816-7.92,7.593,7.593,0,0,0-5.44-5.36,6.648,6.648,0,0,0-3.168-3.6a7.1,7.1,0,0,0,3.12.656,8.17,8.17,0,0,0,2.96-.512A7.428,7.428,0,0,0,5.248-4.88,8.634,8.634,0,0,0,6.976-7.072a14.9,14.9,0,0,0,1.2-2.784L10.64-7.584a10.193,10.193,0,0,1-.672,1.552A18.055,18.055,0,0,1,9.04-4.48a13.52,13.52,0,0,1-1.1,1.44,11.361,11.361,0,0,1-1.2,1.184A10.238,10.238,0,0,1-.048.384a9.84,9.84,0,0,1-4.3-.912A9.73,9.73,0,0,1-7.584-2.992,11.113,11.113,0,0,1-9.632-6.624a13.307,13.307,0,0,1-.72-4.384,13.621,13.621,0,0,1,.688-4.336,10.879,10.879,0,0,1,2.016-3.632,9.771,9.771,0,0,1,3.248-2.5A9.876,9.876,0,0,1-.048-22.4a11.929,11.929,0,0,1,3.728.56,9.186,9.186,0,0,1,3.056,1.68,9.256,9.256,0,0,1,1.2,1.152,16.462,16.462,0,0,1,1.12,1.424A13.692,13.692,0,0,1,10-16.032a8.669,8.669,0,0,1,.64,1.568l-2.464,2.3A8.566,8.566,0,0,0,7.5-13.984,11.376,11.376,0,0,0,6.448-15.7,11.105,11.105,0,0,0,5.12-17.184,7.44,7.44,0,0,0,3.568-18.3,7.606,7.606,0,0,0-.048-19.1ZM7.92,38,4.432,30.608h-8.8L-7.824,38h-3.392L-1.04,16.3H1.1L11.28,38ZM-2.864,27.344H2.96L.048,21.1ZM-8.08,76V54.3H8.72v3.264H-5.072v6.24H2.544v3.264H-5.072V76ZM9.376,114H-8.7V92.3H9.376v3.264H-5.7v5.472H2.688V104.3H-5.7v6.432H9.376Z" transform="translate(11.216 22.4)" fill="#676059"/>
</svg>
