<svg xmlns="http://www.w3.org/2000/svg" width="51.3" height="34.719" viewBox="0 0 51.3 34.719">
  <g id="HM" transform="translate(0.799 0.572)">
    <path id="パス_5738" data-name="パス 5738" d="M-5760.266,5.127l.053-.041a1.375,1.375,0,0,1-.115.091S-5760.312,5.163-5760.266,5.127Zm15.688.01.255-.125a1.4,1.4,0,0,1-.248.132S-5744.578,5.142-5744.578,5.137Zm4.225-.052-.074-.044.151.051A.462.462,0,0,1-5740.353,5.085Zm-26.819-.06A5.805,5.805,0,0,1-5768.192,5c.059.033-.28.03-.644.007.13-.016-.253-.044-.142-.054a4,4,0,0,1-1.181-.138,8.015,8.015,0,0,1-.936-.1c-.374-.086-.832-.141-1.285-.266.129.069-.412-.079-.621-.124.051.011.115.023.1.014-.111-.062-.546-.12-.778-.215-.1-.046.059-.019-.119-.08a3.476,3.476,0,0,1-.907-.3.768.768,0,0,0,.2.049,8.619,8.619,0,0,1-.833-.325c-.108-.041-.006-.045-.382.11-.551.237-1.14.447-1.725.647l.174-.1c-.8.174-.435.209-1.065.363a21.32,21.32,0,0,1-2.742.42q-.7.063-1.405.093l-.7.022c-.069,0-.161,0-.256,0-.292.013-.627.026-.492-.2-.023-.118-.029.077-.063.113a1.079,1.079,0,0,1,.038-.19.664.664,0,0,0,.011-.087.214.214,0,0,0-.014-.07l-.043.025a3.136,3.136,0,0,0,.028-.829c0-.075,0-.15-.006-.221,0-.116,0-.228.006-.334l0-.086a.28.28,0,0,1,.091-.006h.059l.3.006.251.007.122.013a13.137,13.137,0,0,0,2.159-.237c.13-.013.081.006.023.023s-.152.042.055.012c.265-.06.524-.123.775-.195l-.041.013a11.668,11.668,0,0,0,2.655-.936l-.027.019c0,.022.181-.046.284-.119.022-.03-.059.012-.146.041.569-.38.665-.489,1.119-.806-.1.091,0,.03.109-.032a.534.534,0,0,1,.172-.077c.043-.048.013-.041,0-.046s-.005-.009.01-.026a.758.758,0,0,1,.148-.126c.15-.1.3-.206.443-.308.119.087.235.174.352.258.087.067.174.132.258.2l.35.276c.171.071.325.193.388.177a7.654,7.654,0,0,0,1.281.742v.017c.219.045.531.26.692.285a.276.276,0,0,1-.058,0c-.03,0-.058-.006-.055,0l.33.1c-.164-.041-.3-.036-.038.061.177.036.134.017.1,0s-.058-.029.013-.019l.042.064c.217.064.321.041.076-.052a14,14,0,0,0,2.208.492l-.091.015c.4.052.951.106,1.189.145.014-.007.119-.015.055-.028.235,0,.256.007.271.017s.028.025.314.017a2.358,2.358,0,0,0-.329.017c.338.006.676,0,1.011-.012a4.393,4.393,0,0,0,1.055.009c.014-.013-.112-.019-.22-.016l.269-.028.222.03.375-.08.022.038c.284-.039.373-.106.6-.135.851-.118.688-.078,1.3-.177.008-.077.9-.244.968-.344a7.075,7.075,0,0,0,2.3-1.137l-.046.044c.345-.184.247-.269.584-.48l-.063.062c.092-.051.173-.1.288-.177l.461-.319c.135.09.272.183.408.276l.3.193c.177.106.343.208.479.287-.1-.048-.092,0,.036.08.052.026.057.013.059,0s0-.036.115.058c-.064-.033-.048.007,0,.042l.269.123a6.406,6.406,0,0,0,2.092,1.022c.136.058.015.036-.034.036a13.632,13.632,0,0,0,1.988.415l.041.052a1.111,1.111,0,0,0,.252.012,1.121,1.121,0,0,1,.371.042c.05.009-.047,0-.163-.013-.086-.007-.183-.016-.235-.015a2.016,2.016,0,0,0,.55.052,2.69,2.69,0,0,1,.457.017l-.176.035a1.763,1.763,0,0,0,.73-.01,1.955,1.955,0,0,1,.577.03,2.816,2.816,0,0,0,.82.022c.141-.029-.053-.033.088-.064.64-.025.706-.064,1.335-.128.367.028-.319.042.076.061-.163.016-.325.029-.489.041.433-.006-.375.049-.3.081A8.251,8.251,0,0,0-5748.107,3c.02.035-.465.074-.256.09l.2-.044a.565.565,0,0,1-.178.048,1.68,1.68,0,0,0,.442-.068c0-.019-.021-.039-.1-.051a.3.3,0,0,0,.059,0c.369-.11,1.04-.225,1.318-.351-.032.017-.014.016.007.016a.046.046,0,0,1,.02,0,6,6,0,0,0,.668-.276c.061-.013.079-.006.094,0s.046.029.321-.087c.043-.052-.195-.012.155-.157,0,0-.279.145-.094.091.321-.161.123-.038.467-.155.125-.11.34-.151.291-.215a1.057,1.057,0,0,0,.339-.11c-.126.029.294-.234.216-.254.059-.009.033.032,0,.071s-.087.109.088.039c.109-.122.381-.335.329-.382.132-.075.213-.1.4-.22a.247.247,0,0,0-.053.056,4.059,4.059,0,0,1,.33-.26l.582-.421a5.008,5.008,0,0,0,.552.328c-.128.029.7.505.357.376a3.454,3.454,0,0,0,.471.254c-.1.025.314.248.423.361.117.029.348.173.542.252-.065-.024-.1-.032-.1-.009.226.081.146.074.286.176.167.064.147.039.133.015s-.021-.039.069-.015c.141.074.1.073.058.071-.027,0-.053,0-.048.012.144.039.292.074.438.109a.342.342,0,0,1,.129.087,1.871,1.871,0,0,1,.464.144l-.343-.113.1.07c.148.036.3.07.448.1.57.209.337.209.236.251l-.267-.062c0,.007.015.019.045.033.094.024.188.047.283.07l.112.026c-.1-.054-.1-.1-.042-.088l.252.1-.1.015a17.2,17.2,0,0,0,3.1.373l.131-.032a5.828,5.828,0,0,1-1.323-.083l.22.013a.916.916,0,0,0-.427-.071c-.073,0-.133.008-.1.021l-.155-.03c.121-.017.66.039,1,.052-.035,0-.084,0-.135,0-.109,0-.221,0-.17.02.308.017.606.013.9.015a1.858,1.858,0,0,0-.259.038,1.02,1.02,0,0,0,.318,0,.99.99,0,0,1,.188-.009c.087.016.187.028.1.036l.286,0h.142c.035.006.01.044.018.062a1.378,1.378,0,0,1-.024.286s-.04-.173-.075-.114v.095c.042.271.112.353.154.683a1.131,1.131,0,0,1,.034.208,2.268,2.268,0,0,0,.018-.488l.019.023c0,.094,0,.183,0,.276l-.012.173c-.01.113-.02.221-.027.3a.06.06,0,0,1,0-.009c0,.06-.008.124-.014.2a2.492,2.492,0,0,1-.433,0c-.086,0-.164-.007-.217-.006-.158-.006-.307-.007-.445,0-.031.016.408.044.049.041.065-.03-.212-.029-.226-.042a2.773,2.773,0,0,1-.5-.015,2.166,2.166,0,0,0-.342-.017c.066-.006-.153-.035-.3-.06.055-.035-.41-.055.156-.058a5.432,5.432,0,0,1-.731-.049,3.909,3.909,0,0,0-.708-.046l.137.032-.547-.1.023,0a3.09,3.09,0,0,1-.569-.145c.141.019.338.057.481.071-.272-.083-.619-.087-.939-.155a.4.4,0,0,1,.146.01c.082.015.16.028.122,0-.221-.052-.426-.077-.637-.12l.042-.007a.8.8,0,0,0-.376-.074c-.047.006-.079.012-.248-.062,0,.012-.055.006-.039.022-.131-.057-.437-.181-.089-.1a4.606,4.606,0,0,0-.505-.12c.127.07.177.07.207.113-.25-.07-.5-.147-.735-.226-.079-.029.074.009.174.044-.372-.179-.8-.328-1.2-.492-.07-.015-.13-.081-.19-.048a2.1,2.1,0,0,1-.214.1,4.528,4.528,0,0,1-.688.242c.132-.019-.041.044-.109.091-.305.106-.768.267-1.079.34l.077-.044a12.435,12.435,0,0,1-1.815.488c-.02.012-.014-.018.058-.041-.376.1-.9.087-.968.165l.151-.017c-.8.115-1.7.254-2.562.3-.208-.03.5-.029.311-.068-.595.016-1.2.065-1.85.038a1.23,1.23,0,0,0,.132-.01c-.35-.023-.3-.007-.268.007s.04.025-.208.016c.032-.019.005-.025-.172-.042l-.165.026c-.023-.006-.02-.026.038-.035a5.6,5.6,0,0,1-.627-.013,4.687,4.687,0,0,0-.51-.016c-.045-.016.1-.039.032-.061a6.011,6.011,0,0,0-.674-.054h0c-.188-.051-.664-.116-.561-.107-.286-.054-.271-.042-.284-.029s-.035.016-.2,0l.388.081c-.238-.033-.474-.071-.708-.11l.289.03c-.31-.07-.657-.1-1.02-.184l.148.058-.425-.081c0-.052-.513-.141-.245-.134-.709-.214-1.222-.31-1.833-.536.046.016.051.013.058.009a.024.024,0,0,1,.016,0,8.075,8.075,0,0,0-.815-.29.83.83,0,0,0,.164.03.842.842,0,0,0-.259-.1.191.191,0,0,0-.051,0,.833.833,0,0,1-.071.051c.015-.033.019-.049-.069-.016.041.006-.046.061-.124.1.119-.116-.042-.058-.2,0-.135.05-.27.1-.231.043-.067.056-.595.3-.454.286a15.783,15.783,0,0,1-2.28.676c.07-.025.4-.119.175-.077-.858.171-1.338.3-2.24.437-.063-.048.975-.134.975-.2a25.675,25.675,0,0,1-3,.345A3.4,3.4,0,0,0-5767.171,5.026Zm32.913-.152c.007-.032,0-.029-.018-.025s-.043.01-.04-.06c.026.024.034-.027.037-.065a24.377,24.377,0,0,1-5.222-.555l-.013,0c.4.126,1.3.314,1.266.318a6.021,6.021,0,0,0,1.117.134,4.962,4.962,0,0,0,.962.1c.2.035.167.033.08.032a.926.926,0,0,0-.182.007,6.823,6.823,0,0,1,.821.075c.415,0-.094-.017.051-.041A7.524,7.524,0,0,0-5734.258,4.873Zm-33.474-.126c-.409.01-.134.033-.322.055a4.488,4.488,0,0,0,.72-.023,5.18,5.18,0,0,1,.619-.028l.353.025c.064-.051.652-.06.635-.08.11.009.271.007.253.033a6.017,6.017,0,0,0,.726-.08l-.252.012a8.658,8.658,0,0,0,.936-.122,25.821,25.821,0,0,1-3.1.185,24.215,24.215,0,0,1-5.489-.6l-.192-.046c.357.1.849.208,1.267.281.468.176,1.6.258,2.2.386-.119-.03-.021-.029.067-.028a.894.894,0,0,0,.1,0c-.006,0-.013.006,0,.011a1.207,1.207,0,0,0,.35-.009c.18.039.634.015.75.032,0-.006.027-.008.068-.008C-5767.981,4.738-5767.861,4.745-5767.732,4.747Zm17.8-.012-.106.045c.2,0,.409-.007.638-.025l-.306-.009c.2-.016.683-.039.534,0,.452-.065.552-.055.982-.087-.453.042-.01,0-.332.049a5.577,5.577,0,0,0,.835-.1c-.047.02.134.022.261,0,.29-.068.805-.148,1.2-.247l.007.013a14.227,14.227,0,0,0,2.033-.533l.03-.012-.052.013h-.009q-.48.142-.992.263a24.222,24.222,0,0,1-5.489.6c-.755,0-1.5-.032-2.213-.093l.051.007c.124.012.524.11.93.135.214-.023-.5-.055-.258-.071a5.918,5.918,0,0,0,1.338.044c.2-.007.415-.014.636-.014C-5750.123,4.731-5750.029,4.732-5749.934,4.735Zm-31.951.039a6.627,6.627,0,0,0,1.194-.181,2.911,2.911,0,0,0-.321.049c.122-.036.71-.119.952-.16-.3.074-.821.16-1.065.224.456-.057,1.058-.184,1.295-.24l.14.029c.347-.1.337-.019.67-.141h-.079a5.173,5.173,0,0,0,.611-.159,24.365,24.365,0,0,1-4.893.527c.006.011.014.016.023.013.019.017.019.03.2.03s.391,0,.583-.01.376-.016.5-.016S-5781.869,4.748-5781.885,4.774Zm28.677-.171q-.7-.068-1.363-.171c.122.025.256.052.333.07l.058-.007c.146.038-.023.022-.151.006.007,0-.037-.016-.13-.03-.25-.032-.2.042.193.11.43.051.38,0,.316-.025a2.927,2.927,0,0,0,.572.045h.028C-5753.307,4.6-5753.261,4.6-5753.208,4.6Zm18.981-.075.058-.066a.3.3,0,0,0-.058-.129Zm-28.955-.056c.405-.039.677-.174,1.029-.208-.12,0-.145.014.015-.043l-.149.031c-.126.034-.276.075-.424.105l.172-.056c-.127.024-.255.048-.385.07l-.085.019.037-.011-.233.038Zm8.438-.062Zm14.4-.424a3.962,3.962,0,0,0,.845.182l-.213-.049c-.2-.046-.387-.095-.576-.145h0A.106.106,0,0,0-5740.347,3.986Zm-16.4,0c.1.026.158.041.2.049l-.223-.059Zm-16.937-.119a1.558,1.558,0,0,0,.5.126q-.283-.075-.556-.157A.462.462,0,0,0-5773.68,3.864Zm-3.735.066c.118-.02.268-.057.358-.075a.739.739,0,0,0,.2-.09Q-5777.133,3.851-5777.415,3.93Zm.563-.159.119-.047-.1.031Zm34.805-.319c.25.093.294.085.285.053l-.211-.081-.027,0C-5742.037,3.422-5742.045,3.439-5742.047,3.452Zm7.679-.149c.006-.01-.023-.02-.076-.027l-.311.02Q-5734.563,3.3-5734.369,3.3Zm-20.853-.744.192.057-.192-.058Zm14.091-.846a8.28,8.28,0,0,0,1.75.815.737.737,0,0,0-.18-.09c-.217-.07-.429-.147-.633-.229l.019-.019a.462.462,0,0,0-.183-.07c.073,0-.434-.238-.619-.372l.034.062c-.645-.324-.725-.611-1.189-.877A1.575,1.575,0,0,0-5742.4.82a.406.406,0,0,0-.022-.078.209.209,0,0,0-.042-.015l-.091.11a.789.789,0,0,1-.183.132c-.549.315-1,.687-1.583,1.019q-.241.136-.5.261a7.342,7.342,0,0,0,1.027-.536l1.332-.846Zm-14.519.7c-.119-.042-.227-.086-.312-.122.094.052.258.123.21.115C-5755.678,2.434-5755.636,2.434-5755.648,2.414Zm-1.243-.327a1.881,1.881,0,0,0-.334-.154c.1.055.205.108.313.16C-5756.9,2.1-5756.888,2.1-5756.891,2.087Zm-.71-.375c.085.055.175.108.267.16a2.846,2.846,0,0,0-.451-.336,1.418,1.418,0,0,1-.415-.231l.141.061c-.25-.205-.285-.15-.474-.3.066.051.1.039.039-.008-.331-.212-.338-.2-.432-.186a.137.137,0,0,1,.024-.044l-.033-.013-.077.083a.218.218,0,0,1-.039.041l-.026.02.142-.09Zm-17.606-.721c-.064-.065-.093-.111-.048-.114a1.073,1.073,0,0,0-.15-.078,1.437,1.437,0,0,1-.171.175l.171-.109Zm30.983,3.969-.1.051A.778.778,0,0,1-5744.225,4.962Zm.017-.01.014,0a.159.159,0,0,0-.031.012Zm.022,0h0Zm-16.372-.19-.122.071Zm-8.658-.048-.007,0Zm-3.816-.393.032.007Zm38.985-.35c.013,0,.02.007.026.026Zm-26.038-.106.027,0,.122-.054c.045.015-.143.073-.277.122A.749.749,0,0,0-5760.084,3.861Zm0,0h0Zm15.9-.007h0Zm-13.9-.118.031.011Zm15.413-.129c.017-.009.035-.013.043-.007a.1.1,0,0,1-.035.012S-5742.669,3.609-5742.669,3.606Zm6.3-.464.056.011A.261.261,0,0,1-5736.367,3.142Zm-3.751-1.209.036.014Zm-18.438-.889.023.02Zm15.249-.067-.014.009Zm2.226-.968s0-.007.008-.009.011.018.008.018A.046.046,0,0,1-5741.081.009Z" transform="translate(5784)" fill="#676059" stroke="rgba(0,0,0,0)" stroke-width="1"/>
    <path id="パス_5739" data-name="パス 5739" d="M-5760.266,5.127l.053-.041a1.375,1.375,0,0,1-.115.091S-5760.312,5.163-5760.266,5.127Zm15.688.01.255-.125a1.4,1.4,0,0,1-.248.132S-5744.578,5.142-5744.578,5.137Zm4.225-.052-.074-.044.151.051A.462.462,0,0,1-5740.353,5.085Zm-26.819-.06A5.805,5.805,0,0,1-5768.192,5c.059.033-.28.03-.644.007.13-.016-.253-.044-.142-.054a4,4,0,0,1-1.181-.138,8.015,8.015,0,0,1-.936-.1c-.374-.086-.832-.141-1.285-.266.129.069-.412-.079-.621-.124.051.011.115.023.1.014-.111-.062-.546-.12-.778-.215-.1-.046.059-.019-.119-.08a3.476,3.476,0,0,1-.907-.3.768.768,0,0,0,.2.049,8.619,8.619,0,0,1-.833-.325c-.108-.041-.006-.045-.382.11-.551.237-1.14.447-1.725.647l.174-.1c-.8.174-.435.209-1.065.363a21.32,21.32,0,0,1-2.742.42q-.7.063-1.405.093l-.7.022c-.069,0-.161,0-.256,0-.292.013-.627.026-.492-.2-.023-.118-.029.077-.063.113a1.079,1.079,0,0,1,.038-.19.664.664,0,0,0,.011-.087.214.214,0,0,0-.014-.07l-.043.025a3.136,3.136,0,0,0,.028-.829c0-.075,0-.15-.006-.221,0-.116,0-.228.006-.334l0-.086a.28.28,0,0,1,.091-.006h.059l.3.006.251.007.122.013a13.137,13.137,0,0,0,2.159-.237c.13-.013.081.006.023.023s-.152.042.055.012c.265-.06.524-.123.775-.195l-.041.013a11.668,11.668,0,0,0,2.655-.936l-.027.019c0,.022.181-.046.284-.119.022-.03-.059.012-.146.041.569-.38.665-.489,1.119-.806-.1.091,0,.03.109-.032a.534.534,0,0,1,.172-.077c.043-.048.013-.041,0-.046s-.005-.009.01-.026a.758.758,0,0,1,.148-.126c.15-.1.3-.206.443-.308.119.087.235.174.352.258.087.067.174.132.258.2l.35.276c.171.071.325.193.388.177a7.654,7.654,0,0,0,1.281.742v.017c.219.045.531.26.692.285a.276.276,0,0,1-.058,0c-.03,0-.058-.006-.055,0l.33.1c-.164-.041-.3-.036-.038.061.177.036.134.017.1,0s-.058-.029.013-.019l.042.064c.217.064.321.041.076-.052a14,14,0,0,0,2.208.492l-.091.015c.4.052.951.106,1.189.145.014-.007.119-.015.055-.028.235,0,.256.007.271.017s.028.025.314.017a2.358,2.358,0,0,0-.329.017c.338.006.676,0,1.011-.012a4.393,4.393,0,0,0,1.055.009c.014-.013-.112-.019-.22-.016l.269-.028.222.03.375-.08.022.038c.284-.039.373-.106.6-.135.851-.118.688-.078,1.3-.177.008-.077.9-.244.968-.344a7.075,7.075,0,0,0,2.3-1.137l-.046.044c.345-.184.247-.269.584-.48l-.063.062c.092-.051.173-.1.288-.177l.461-.319c.135.09.272.183.408.276l.3.193c.177.106.343.208.479.287-.1-.048-.092,0,.036.08.052.026.057.013.059,0s0-.036.115.058c-.064-.033-.048.007,0,.042l.269.123a6.406,6.406,0,0,0,2.092,1.022c.136.058.015.036-.034.036a13.632,13.632,0,0,0,1.988.415l.041.052a1.111,1.111,0,0,0,.252.012,1.121,1.121,0,0,1,.371.042c.05.009-.047,0-.163-.013-.086-.007-.183-.016-.235-.015a2.016,2.016,0,0,0,.55.052,2.69,2.69,0,0,1,.457.017l-.176.035a1.763,1.763,0,0,0,.73-.01,1.955,1.955,0,0,1,.577.03,2.816,2.816,0,0,0,.82.022c.141-.029-.053-.033.088-.064.64-.025.706-.064,1.335-.128.367.028-.319.042.076.061-.163.016-.325.029-.489.041.433-.006-.375.049-.3.081A8.251,8.251,0,0,0-5748.107,3c.02.035-.465.074-.256.09l.2-.044a.565.565,0,0,1-.178.048,1.68,1.68,0,0,0,.442-.068c0-.019-.021-.039-.1-.051a.3.3,0,0,0,.059,0c.369-.11,1.04-.225,1.318-.351-.032.017-.014.016.007.016a.046.046,0,0,1,.02,0,6,6,0,0,0,.668-.276c.061-.013.079-.006.094,0s.046.029.321-.087c.043-.052-.195-.012.155-.157,0,0-.279.145-.094.091.321-.161.123-.038.467-.155.125-.11.34-.151.291-.215a1.057,1.057,0,0,0,.339-.11c-.126.029.294-.234.216-.254.059-.009.033.032,0,.071s-.087.109.088.039c.109-.122.381-.335.329-.382.132-.075.213-.1.4-.22a.247.247,0,0,0-.053.056,4.059,4.059,0,0,1,.33-.26l.582-.421a5.008,5.008,0,0,0,.552.328c-.128.029.7.505.357.376a3.454,3.454,0,0,0,.471.254c-.1.025.314.248.423.361.117.029.348.173.542.252-.065-.024-.1-.032-.1-.009.226.081.146.074.286.176.167.064.147.039.133.015s-.021-.039.069-.015c.141.074.1.073.058.071-.027,0-.053,0-.048.012.144.039.292.074.438.109a.342.342,0,0,1,.129.087,1.871,1.871,0,0,1,.464.144l-.343-.113.1.07c.148.036.3.07.448.1.57.209.337.209.236.251l-.267-.062c0,.007.015.019.045.033.094.024.188.047.283.07l.112.026c-.1-.054-.1-.1-.042-.088l.252.1-.1.015a17.2,17.2,0,0,0,3.1.373l.131-.032a5.828,5.828,0,0,1-1.323-.083l.22.013a.916.916,0,0,0-.427-.071c-.073,0-.133.008-.1.021l-.155-.03c.121-.017.66.039,1,.052-.035,0-.084,0-.135,0-.109,0-.221,0-.17.02.308.017.606.013.9.015a1.858,1.858,0,0,0-.259.038,1.02,1.02,0,0,0,.318,0,.99.99,0,0,1,.188-.009c.087.016.187.028.1.036l.286,0h.142c.035.006.01.044.018.062a1.378,1.378,0,0,1-.024.286s-.04-.173-.075-.114v.095c.042.271.112.353.154.683a1.131,1.131,0,0,1,.034.208,2.268,2.268,0,0,0,.018-.488l.019.023c0,.094,0,.183,0,.276l-.012.173c-.01.113-.02.221-.027.3a.06.06,0,0,1,0-.009c0,.06-.008.124-.014.2a2.492,2.492,0,0,1-.433,0c-.086,0-.164-.007-.217-.006-.158-.006-.307-.007-.445,0-.031.016.408.044.049.041.065-.03-.212-.029-.226-.042a2.773,2.773,0,0,1-.5-.015,2.166,2.166,0,0,0-.342-.017c.066-.006-.153-.035-.3-.06.055-.035-.41-.055.156-.058a5.432,5.432,0,0,1-.731-.049,3.909,3.909,0,0,0-.708-.046l.137.032-.547-.1.023,0a3.09,3.09,0,0,1-.569-.145c.141.019.338.057.481.071-.272-.083-.619-.087-.939-.155a.4.4,0,0,1,.146.01c.082.015.16.028.122,0-.221-.052-.426-.077-.637-.12l.042-.007a.8.8,0,0,0-.376-.074c-.047.006-.079.012-.248-.062,0,.012-.055.006-.039.022-.131-.057-.437-.181-.089-.1a4.606,4.606,0,0,0-.505-.12c.127.07.177.07.207.113-.25-.07-.5-.147-.735-.226-.079-.029.074.009.174.044-.372-.179-.8-.328-1.2-.492-.07-.015-.13-.081-.19-.048a2.1,2.1,0,0,1-.214.1,4.528,4.528,0,0,1-.688.242c.132-.019-.041.044-.109.091-.305.106-.768.267-1.079.34l.077-.044a12.435,12.435,0,0,1-1.815.488c-.02.012-.014-.018.058-.041-.376.1-.9.087-.968.165l.151-.017c-.8.115-1.7.254-2.562.3-.208-.03.5-.029.311-.068-.595.016-1.2.065-1.85.038a1.23,1.23,0,0,0,.132-.01c-.35-.023-.3-.007-.268.007s.04.025-.208.016c.032-.019.005-.025-.172-.042l-.165.026c-.023-.006-.02-.026.038-.035a5.6,5.6,0,0,1-.627-.013,4.687,4.687,0,0,0-.51-.016c-.045-.016.1-.039.032-.061a6.011,6.011,0,0,0-.674-.054h0c-.188-.051-.664-.116-.561-.107-.286-.054-.271-.042-.284-.029s-.035.016-.2,0l.388.081c-.238-.033-.474-.071-.708-.11l.289.03c-.31-.07-.657-.1-1.02-.184l.148.058-.425-.081c0-.052-.513-.141-.245-.134-.709-.214-1.222-.31-1.833-.536.046.016.051.013.058.009a.024.024,0,0,1,.016,0,8.075,8.075,0,0,0-.815-.29.83.83,0,0,0,.164.03.842.842,0,0,0-.259-.1.191.191,0,0,0-.051,0,.833.833,0,0,1-.071.051c.015-.033.019-.049-.069-.016.041.006-.046.061-.124.1.119-.116-.042-.058-.2,0-.135.05-.27.1-.231.043-.067.056-.595.3-.454.286a15.783,15.783,0,0,1-2.28.676c.07-.025.4-.119.175-.077-.858.171-1.338.3-2.24.437-.063-.048.975-.134.975-.2a25.675,25.675,0,0,1-3,.345A3.4,3.4,0,0,0-5767.171,5.026Zm32.913-.152c.007-.032,0-.029-.018-.025s-.043.01-.04-.06c.026.024.034-.027.037-.065a24.377,24.377,0,0,1-5.222-.555l-.013,0c.4.126,1.3.314,1.266.318a6.021,6.021,0,0,0,1.117.134,4.962,4.962,0,0,0,.962.1c.2.035.167.033.08.032a.926.926,0,0,0-.182.007,6.823,6.823,0,0,1,.821.075c.415,0-.094-.017.051-.041A7.524,7.524,0,0,0-5734.258,4.873Zm-33.474-.126c-.409.01-.134.033-.322.055a4.488,4.488,0,0,0,.72-.023,5.18,5.18,0,0,1,.619-.028l.353.025c.064-.051.652-.06.635-.08.11.009.271.007.253.033a6.017,6.017,0,0,0,.726-.08l-.252.012a8.658,8.658,0,0,0,.936-.122,25.821,25.821,0,0,1-3.1.185,24.215,24.215,0,0,1-5.489-.6l-.192-.046c.357.1.849.208,1.267.281.468.176,1.6.258,2.2.386-.119-.03-.021-.029.067-.028a.894.894,0,0,0,.1,0c-.006,0-.013.006,0,.011a1.207,1.207,0,0,0,.35-.009c.18.039.634.015.75.032,0-.006.027-.008.068-.008C-5767.981,4.738-5767.861,4.745-5767.732,4.747Zm17.8-.012-.106.045c.2,0,.409-.007.638-.025l-.306-.009c.2-.016.683-.039.534,0,.452-.065.552-.055.982-.087-.453.042-.01,0-.332.049a5.577,5.577,0,0,0,.835-.1c-.047.02.134.022.261,0,.29-.068.805-.148,1.2-.247l.007.013a14.227,14.227,0,0,0,2.033-.533l.03-.012-.052.013h-.009q-.48.142-.992.263a24.222,24.222,0,0,1-5.489.6c-.755,0-1.5-.032-2.213-.093l.051.007c.124.012.524.11.93.135.214-.023-.5-.055-.258-.071a5.918,5.918,0,0,0,1.338.044c.2-.007.415-.014.636-.014C-5750.123,4.731-5750.029,4.732-5749.934,4.735Zm-31.951.039a6.627,6.627,0,0,0,1.194-.181,2.911,2.911,0,0,0-.321.049c.122-.036.71-.119.952-.16-.3.074-.821.16-1.065.224.456-.057,1.058-.184,1.295-.24l.14.029c.347-.1.337-.019.67-.141h-.079a5.173,5.173,0,0,0,.611-.159,24.365,24.365,0,0,1-4.893.527c.006.011.014.016.023.013.019.017.019.03.2.03s.391,0,.583-.01.376-.016.5-.016S-5781.869,4.748-5781.885,4.774Zm28.677-.171q-.7-.068-1.363-.171c.122.025.256.052.333.07l.058-.007c.146.038-.023.022-.151.006.007,0-.037-.016-.13-.03-.25-.032-.2.042.193.11.43.051.38,0,.316-.025a2.927,2.927,0,0,0,.572.045h.028C-5753.307,4.6-5753.261,4.6-5753.208,4.6Zm18.981-.075.058-.066a.3.3,0,0,0-.058-.129Zm-28.955-.056c.405-.039.677-.174,1.029-.208-.12,0-.145.014.015-.043l-.149.031c-.126.034-.276.075-.424.105l.172-.056c-.127.024-.255.048-.385.07l-.085.019.037-.011-.233.038Zm8.438-.062Zm14.4-.424a3.962,3.962,0,0,0,.845.182l-.213-.049c-.2-.046-.387-.095-.576-.145h0A.106.106,0,0,0-5740.347,3.986Zm-16.4,0c.1.026.158.041.2.049l-.223-.059Zm-16.937-.119a1.558,1.558,0,0,0,.5.126q-.283-.075-.556-.157A.462.462,0,0,0-5773.68,3.864Zm-3.735.066c.118-.02.268-.057.358-.075a.739.739,0,0,0,.2-.09Q-5777.133,3.851-5777.415,3.93Zm.563-.159.119-.047-.1.031Zm34.805-.319c.25.093.294.085.285.053l-.211-.081-.027,0C-5742.037,3.422-5742.045,3.439-5742.047,3.452Zm7.679-.149c.006-.01-.023-.02-.076-.027l-.311.02Q-5734.563,3.3-5734.369,3.3Zm-20.853-.744.192.057-.192-.058Zm14.091-.846a8.28,8.28,0,0,0,1.75.815.737.737,0,0,0-.18-.09c-.217-.07-.429-.147-.633-.229l.019-.019a.462.462,0,0,0-.183-.07c.073,0-.434-.238-.619-.372l.034.062c-.645-.324-.725-.611-1.189-.877A1.575,1.575,0,0,0-5742.4.82a.406.406,0,0,0-.022-.078.209.209,0,0,0-.042-.015l-.091.11a.789.789,0,0,1-.183.132c-.549.315-1,.687-1.583,1.019q-.241.136-.5.261a7.342,7.342,0,0,0,1.027-.536l1.332-.846Zm-14.519.7c-.119-.042-.227-.086-.312-.122.094.052.258.123.21.115C-5755.678,2.434-5755.636,2.434-5755.648,2.414Zm-1.243-.327a1.881,1.881,0,0,0-.334-.154c.1.055.205.108.313.16C-5756.9,2.1-5756.888,2.1-5756.891,2.087Zm-.71-.375c.085.055.175.108.267.16a2.846,2.846,0,0,0-.451-.336,1.418,1.418,0,0,1-.415-.231l.141.061c-.25-.205-.285-.15-.474-.3.066.051.1.039.039-.008-.331-.212-.338-.2-.432-.186a.137.137,0,0,1,.024-.044l-.033-.013-.077.083a.218.218,0,0,1-.039.041l-.026.02.142-.09Zm-17.606-.721c-.064-.065-.093-.111-.048-.114a1.073,1.073,0,0,0-.15-.078,1.437,1.437,0,0,1-.171.175l.171-.109Zm30.983,3.969-.1.051A.778.778,0,0,1-5744.225,4.962Zm.017-.01.014,0a.159.159,0,0,0-.031.012Zm.022,0h0Zm-16.372-.19-.122.071Zm-8.658-.048-.007,0Zm-3.816-.393.032.007Zm38.985-.35c.013,0,.02.007.026.026Zm-26.038-.106.027,0,.122-.054c.045.015-.143.073-.277.122A.749.749,0,0,0-5760.084,3.861Zm0,0h0Zm15.9-.007h0Zm-13.9-.118.031.011Zm15.413-.129c.017-.009.035-.013.043-.007a.1.1,0,0,1-.035.012S-5742.669,3.609-5742.669,3.606Zm6.3-.464.056.011A.261.261,0,0,1-5736.367,3.142Zm-3.751-1.209.036.014Zm-18.438-.889.023.02Zm15.249-.067-.014.009Zm2.226-.968s0-.007.008-.009.011.018.008.018A.046.046,0,0,1-5741.081.009Z" transform="translate(5784 13.911)" fill="#676059" stroke="rgba(0,0,0,0)" stroke-width="1"/>
    <path id="パス_5740" data-name="パス 5740" d="M-5760.266,5.127l.053-.041a1.375,1.375,0,0,1-.115.091S-5760.312,5.163-5760.266,5.127Zm15.688.01.255-.125a1.4,1.4,0,0,1-.248.132S-5744.578,5.142-5744.578,5.137Zm4.225-.052-.074-.044.151.051A.462.462,0,0,1-5740.353,5.085Zm-26.819-.06A5.805,5.805,0,0,1-5768.192,5c.059.033-.28.03-.644.007.13-.016-.253-.044-.142-.054a4,4,0,0,1-1.181-.138,8.015,8.015,0,0,1-.936-.1c-.374-.086-.832-.141-1.285-.266.129.069-.412-.079-.621-.124.051.011.115.023.1.014-.111-.062-.546-.12-.778-.215-.1-.046.059-.019-.119-.08a3.476,3.476,0,0,1-.907-.3.768.768,0,0,0,.2.049,8.619,8.619,0,0,1-.833-.325c-.108-.041-.006-.045-.382.11-.551.237-1.14.447-1.725.647l.174-.1c-.8.174-.435.209-1.065.363a21.32,21.32,0,0,1-2.742.42q-.7.063-1.405.093l-.7.022c-.069,0-.161,0-.256,0-.292.013-.627.026-.492-.2-.023-.118-.029.077-.063.113a1.079,1.079,0,0,1,.038-.19.664.664,0,0,0,.011-.087.214.214,0,0,0-.014-.07l-.043.025a3.136,3.136,0,0,0,.028-.829c0-.075,0-.15-.006-.221,0-.116,0-.228.006-.334l0-.086a.28.28,0,0,1,.091-.006h.059l.3.006.251.007.122.013a13.137,13.137,0,0,0,2.159-.237c.13-.013.081.006.023.023s-.152.042.055.012c.265-.06.524-.123.775-.195l-.041.013a11.668,11.668,0,0,0,2.655-.936l-.027.019c0,.022.181-.046.284-.119.022-.03-.059.012-.146.041.569-.38.665-.489,1.119-.806-.1.091,0,.03.109-.032a.534.534,0,0,1,.172-.077c.043-.048.013-.041,0-.046s-.005-.009.01-.026a.758.758,0,0,1,.148-.126c.15-.1.3-.206.443-.308.119.087.235.174.352.258.087.067.174.132.258.2l.35.276c.171.071.325.193.388.177a7.654,7.654,0,0,0,1.281.742v.017c.219.045.531.26.692.285a.276.276,0,0,1-.058,0c-.03,0-.058-.006-.055,0l.33.1c-.164-.041-.3-.036-.038.061.177.036.134.017.1,0s-.058-.029.013-.019l.042.064c.217.064.321.041.076-.052a14,14,0,0,0,2.208.492l-.091.015c.4.052.951.106,1.189.145.014-.007.119-.015.055-.028.235,0,.256.007.271.017s.028.025.314.017a2.358,2.358,0,0,0-.329.017c.338.006.676,0,1.011-.012a4.393,4.393,0,0,0,1.055.009c.014-.013-.112-.019-.22-.016l.269-.028.222.03.375-.08.022.038c.284-.039.373-.106.6-.135.851-.118.688-.078,1.3-.177.008-.077.9-.244.968-.344a7.075,7.075,0,0,0,2.3-1.137l-.046.044c.345-.184.247-.269.584-.48l-.063.062c.092-.051.173-.1.288-.177l.461-.319c.135.09.272.183.408.276l.3.193c.177.106.343.208.479.287-.1-.048-.092,0,.036.08.052.026.057.013.059,0s0-.036.115.058c-.064-.033-.048.007,0,.042l.269.123a6.406,6.406,0,0,0,2.092,1.022c.136.058.015.036-.034.036a13.632,13.632,0,0,0,1.988.415l.041.052a1.111,1.111,0,0,0,.252.012,1.121,1.121,0,0,1,.371.042c.05.009-.047,0-.163-.013-.086-.007-.183-.016-.235-.015a2.016,2.016,0,0,0,.55.052,2.69,2.69,0,0,1,.457.017l-.176.035a1.763,1.763,0,0,0,.73-.01,1.955,1.955,0,0,1,.577.03,2.816,2.816,0,0,0,.82.022c.141-.029-.053-.033.088-.064.64-.025.706-.064,1.335-.128.367.028-.319.042.076.061-.163.016-.325.029-.489.041.433-.006-.375.049-.3.081A8.251,8.251,0,0,0-5748.107,3c.02.035-.465.074-.256.09l.2-.044a.565.565,0,0,1-.178.048,1.68,1.68,0,0,0,.442-.068c0-.019-.021-.039-.1-.051a.3.3,0,0,0,.059,0c.369-.11,1.04-.225,1.318-.351-.032.017-.014.016.007.016a.046.046,0,0,1,.02,0,6,6,0,0,0,.668-.276c.061-.013.079-.006.094,0s.046.029.321-.087c.043-.052-.195-.012.155-.157,0,0-.279.145-.094.091.321-.161.123-.038.467-.155.125-.11.34-.151.291-.215a1.057,1.057,0,0,0,.339-.11c-.126.029.294-.234.216-.254.059-.009.033.032,0,.071s-.087.109.088.039c.109-.122.381-.335.329-.382.132-.075.213-.1.4-.22a.247.247,0,0,0-.053.056,4.059,4.059,0,0,1,.33-.26l.582-.421a5.008,5.008,0,0,0,.552.328c-.128.029.7.505.357.376a3.454,3.454,0,0,0,.471.254c-.1.025.314.248.423.361.117.029.348.173.542.252-.065-.024-.1-.032-.1-.009.226.081.146.074.286.176.167.064.147.039.133.015s-.021-.039.069-.015c.141.074.1.073.058.071-.027,0-.053,0-.048.012.144.039.292.074.438.109a.342.342,0,0,1,.129.087,1.871,1.871,0,0,1,.464.144l-.343-.113.1.07c.148.036.3.07.448.1.57.209.337.209.236.251l-.267-.062c0,.007.015.019.045.033.094.024.188.047.283.07l.112.026c-.1-.054-.1-.1-.042-.088l.252.1-.1.015a17.2,17.2,0,0,0,3.1.373l.131-.032a5.828,5.828,0,0,1-1.323-.083l.22.013a.916.916,0,0,0-.427-.071c-.073,0-.133.008-.1.021l-.155-.03c.121-.017.66.039,1,.052-.035,0-.084,0-.135,0-.109,0-.221,0-.17.02.308.017.606.013.9.015a1.858,1.858,0,0,0-.259.038,1.02,1.02,0,0,0,.318,0,.99.99,0,0,1,.188-.009c.087.016.187.028.1.036l.286,0h.142c.035.006.01.044.018.062a1.378,1.378,0,0,1-.024.286s-.04-.173-.075-.114v.095c.042.271.112.353.154.683a1.131,1.131,0,0,1,.034.208,2.268,2.268,0,0,0,.018-.488l.019.023c0,.094,0,.183,0,.276l-.012.173c-.01.113-.02.221-.027.3a.06.06,0,0,1,0-.009c0,.06-.008.124-.014.2a2.492,2.492,0,0,1-.433,0c-.086,0-.164-.007-.217-.006-.158-.006-.307-.007-.445,0-.031.016.408.044.049.041.065-.03-.212-.029-.226-.042a2.773,2.773,0,0,1-.5-.015,2.166,2.166,0,0,0-.342-.017c.066-.006-.153-.035-.3-.06.055-.035-.41-.055.156-.058a5.432,5.432,0,0,1-.731-.049,3.909,3.909,0,0,0-.708-.046l.137.032-.547-.1.023,0a3.09,3.09,0,0,1-.569-.145c.141.019.338.057.481.071-.272-.083-.619-.087-.939-.155a.4.4,0,0,1,.146.01c.082.015.16.028.122,0-.221-.052-.426-.077-.637-.12l.042-.007a.8.8,0,0,0-.376-.074c-.047.006-.079.012-.248-.062,0,.012-.055.006-.039.022-.131-.057-.437-.181-.089-.1a4.606,4.606,0,0,0-.505-.12c.127.07.177.07.207.113-.25-.07-.5-.147-.735-.226-.079-.029.074.009.174.044-.372-.179-.8-.328-1.2-.492-.07-.015-.13-.081-.19-.048a2.1,2.1,0,0,1-.214.1,4.528,4.528,0,0,1-.688.242c.132-.019-.041.044-.109.091-.305.106-.768.267-1.079.34l.077-.044a12.435,12.435,0,0,1-1.815.488c-.02.012-.014-.018.058-.041-.376.1-.9.087-.968.165l.151-.017c-.8.115-1.7.254-2.562.3-.208-.03.5-.029.311-.068-.595.016-1.2.065-1.85.038a1.23,1.23,0,0,0,.132-.01c-.35-.023-.3-.007-.268.007s.04.025-.208.016c.032-.019.005-.025-.172-.042l-.165.026c-.023-.006-.02-.026.038-.035a5.6,5.6,0,0,1-.627-.013,4.687,4.687,0,0,0-.51-.016c-.045-.016.1-.039.032-.061a6.011,6.011,0,0,0-.674-.054h0c-.188-.051-.664-.116-.561-.107-.286-.054-.271-.042-.284-.029s-.035.016-.2,0l.388.081c-.238-.033-.474-.071-.708-.11l.289.03c-.31-.07-.657-.1-1.02-.184l.148.058-.425-.081c0-.052-.513-.141-.245-.134-.709-.214-1.222-.31-1.833-.536.046.016.051.013.058.009a.024.024,0,0,1,.016,0,8.075,8.075,0,0,0-.815-.29.83.83,0,0,0,.164.03.842.842,0,0,0-.259-.1.191.191,0,0,0-.051,0,.833.833,0,0,1-.071.051c.015-.033.019-.049-.069-.016.041.006-.046.061-.124.1.119-.116-.042-.058-.2,0-.135.05-.27.1-.231.043-.067.056-.595.3-.454.286a15.783,15.783,0,0,1-2.28.676c.07-.025.4-.119.175-.077-.858.171-1.338.3-2.24.437-.063-.048.975-.134.975-.2a25.675,25.675,0,0,1-3,.345A3.4,3.4,0,0,0-5767.171,5.026Zm32.913-.152c.007-.032,0-.029-.018-.025s-.043.01-.04-.06c.026.024.034-.027.037-.065a24.377,24.377,0,0,1-5.222-.555l-.013,0c.4.126,1.3.314,1.266.318a6.021,6.021,0,0,0,1.117.134,4.962,4.962,0,0,0,.962.1c.2.035.167.033.08.032a.926.926,0,0,0-.182.007,6.823,6.823,0,0,1,.821.075c.415,0-.094-.017.051-.041A7.524,7.524,0,0,0-5734.258,4.873Zm-33.474-.126c-.409.01-.134.033-.322.055a4.488,4.488,0,0,0,.72-.023,5.18,5.18,0,0,1,.619-.028l.353.025c.064-.051.652-.06.635-.08.11.009.271.007.253.033a6.017,6.017,0,0,0,.726-.08l-.252.012a8.658,8.658,0,0,0,.936-.122,25.821,25.821,0,0,1-3.1.185,24.215,24.215,0,0,1-5.489-.6l-.192-.046c.357.1.849.208,1.267.281.468.176,1.6.258,2.2.386-.119-.03-.021-.029.067-.028a.894.894,0,0,0,.1,0c-.006,0-.013.006,0,.011a1.207,1.207,0,0,0,.35-.009c.18.039.634.015.75.032,0-.006.027-.008.068-.008C-5767.981,4.738-5767.861,4.745-5767.732,4.747Zm17.8-.012-.106.045c.2,0,.409-.007.638-.025l-.306-.009c.2-.016.683-.039.534,0,.452-.065.552-.055.982-.087-.453.042-.01,0-.332.049a5.577,5.577,0,0,0,.835-.1c-.047.02.134.022.261,0,.29-.068.805-.148,1.2-.247l.007.013a14.227,14.227,0,0,0,2.033-.533l.03-.012-.052.013h-.009q-.48.142-.992.263a24.222,24.222,0,0,1-5.489.6c-.755,0-1.5-.032-2.213-.093l.051.007c.124.012.524.11.93.135.214-.023-.5-.055-.258-.071a5.918,5.918,0,0,0,1.338.044c.2-.007.415-.014.636-.014C-5750.123,4.731-5750.029,4.732-5749.934,4.735Zm-31.951.039a6.627,6.627,0,0,0,1.194-.181,2.911,2.911,0,0,0-.321.049c.122-.036.71-.119.952-.16-.3.074-.821.16-1.065.224.456-.057,1.058-.184,1.295-.24l.14.029c.347-.1.337-.019.67-.141h-.079a5.173,5.173,0,0,0,.611-.159,24.365,24.365,0,0,1-4.893.527c.006.011.014.016.023.013.019.017.019.03.2.03s.391,0,.583-.01.376-.016.5-.016S-5781.869,4.748-5781.885,4.774Zm28.677-.171q-.7-.068-1.363-.171c.122.025.256.052.333.07l.058-.007c.146.038-.023.022-.151.006.007,0-.037-.016-.13-.03-.25-.032-.2.042.193.11.43.051.38,0,.316-.025a2.927,2.927,0,0,0,.572.045h.028C-5753.307,4.6-5753.261,4.6-5753.208,4.6Zm18.981-.075.058-.066a.3.3,0,0,0-.058-.129Zm-28.955-.056c.405-.039.677-.174,1.029-.208-.12,0-.145.014.015-.043l-.149.031c-.126.034-.276.075-.424.105l.172-.056c-.127.024-.255.048-.385.07l-.085.019.037-.011-.233.038Zm8.438-.062Zm14.4-.424a3.962,3.962,0,0,0,.845.182l-.213-.049c-.2-.046-.387-.095-.576-.145h0A.106.106,0,0,0-5740.347,3.986Zm-16.4,0c.1.026.158.041.2.049l-.223-.059Zm-16.937-.119a1.558,1.558,0,0,0,.5.126q-.283-.075-.556-.157A.462.462,0,0,0-5773.68,3.864Zm-3.735.066c.118-.02.268-.057.358-.075a.739.739,0,0,0,.2-.09Q-5777.133,3.851-5777.415,3.93Zm.563-.159.119-.047-.1.031Zm34.805-.319c.25.093.294.085.285.053l-.211-.081-.027,0C-5742.037,3.422-5742.045,3.439-5742.047,3.452Zm7.679-.149c.006-.01-.023-.02-.076-.027l-.311.02Q-5734.563,3.3-5734.369,3.3Zm-20.853-.744.192.057-.192-.058Zm14.091-.846a8.28,8.28,0,0,0,1.75.815.737.737,0,0,0-.18-.09c-.217-.07-.429-.147-.633-.229l.019-.019a.462.462,0,0,0-.183-.07c.073,0-.434-.238-.619-.372l.034.062c-.645-.324-.725-.611-1.189-.877A1.575,1.575,0,0,0-5742.4.82a.406.406,0,0,0-.022-.078.209.209,0,0,0-.042-.015l-.091.11a.789.789,0,0,1-.183.132c-.549.315-1,.687-1.583,1.019q-.241.136-.5.261a7.342,7.342,0,0,0,1.027-.536l1.332-.846Zm-14.519.7c-.119-.042-.227-.086-.312-.122.094.052.258.123.21.115C-5755.678,2.434-5755.636,2.434-5755.648,2.414Zm-1.243-.327a1.881,1.881,0,0,0-.334-.154c.1.055.205.108.313.16C-5756.9,2.1-5756.888,2.1-5756.891,2.087Zm-.71-.375c.085.055.175.108.267.16a2.846,2.846,0,0,0-.451-.336,1.418,1.418,0,0,1-.415-.231l.141.061c-.25-.205-.285-.15-.474-.3.066.051.1.039.039-.008-.331-.212-.338-.2-.432-.186a.137.137,0,0,1,.024-.044l-.033-.013-.077.083a.218.218,0,0,1-.039.041l-.026.02.142-.09Zm-17.606-.721c-.064-.065-.093-.111-.048-.114a1.073,1.073,0,0,0-.15-.078,1.437,1.437,0,0,1-.171.175l.171-.109Zm30.983,3.969-.1.051A.778.778,0,0,1-5744.225,4.962Zm.017-.01.014,0a.159.159,0,0,0-.031.012Zm.022,0h0Zm-16.372-.19-.122.071Zm-8.658-.048-.007,0Zm-3.816-.393.032.007Zm38.985-.35c.013,0,.02.007.026.026Zm-26.038-.106.027,0,.122-.054c.045.015-.143.073-.277.122A.749.749,0,0,0-5760.084,3.861Zm0,0h0Zm15.9-.007h0Zm-13.9-.118.031.011Zm15.413-.129c.017-.009.035-.013.043-.007a.1.1,0,0,1-.035.012S-5742.669,3.609-5742.669,3.606Zm6.3-.464.056.011A.261.261,0,0,1-5736.367,3.142Zm-3.751-1.209.036.014Zm-18.438-.889.023.02Zm15.249-.067-.014.009Zm2.226-.968s0-.007.008-.009.011.018.008.018A.046.046,0,0,1-5741.081.009Z" transform="translate(5784 27.823)" fill="#676059" stroke="rgba(0,0,0,0)" stroke-width="1"/>
  </g>
</svg>
