<svg xmlns="http://www.w3.org/2000/svg" width="22.652" height="24.001" viewBox="0 0 22.652 24.001">
  <g id="グループ_304" data-name="グループ 304" transform="translate(0 0.001)">
    <path id="合体_14" data-name="合体 14" d="M-6482.59-774.3a1.716,1.716,0,0,1-.623-.757,1.7,1.7,0,0,1-.135-.67,1.727,1.727,0,0,1,.293-.964,1.731,1.731,0,0,1,.758-.623,1.7,1.7,0,0,1,.67-.135,1.715,1.715,0,0,1,.962.294,1.734,1.734,0,0,1,.625.759,1.733,1.733,0,0,1,.135.67,1.728,1.728,0,0,1-.295.964,1.737,1.737,0,0,1-.757.623,1.744,1.744,0,0,1-.67.135A1.717,1.717,0,0,1-6482.59-774.3Zm.576-2a.7.7,0,0,0-.253.305.7.7,0,0,0-.054.271.7.7,0,0,0,.118.388.7.7,0,0,0,.307.251.674.674,0,0,0,.271.055.693.693,0,0,0,.387-.119.7.7,0,0,0,.253-.3.722.722,0,0,0,.056-.271.7.7,0,0,0-.119-.388.715.715,0,0,0-.307-.253.7.7,0,0,0-.27-.054A.684.684,0,0,0-6482.014-776.3Zm-10.022,2a1.716,1.716,0,0,1-.623-.757,1.706,1.706,0,0,1-.137-.67,1.717,1.717,0,0,1,.3-.964,1.725,1.725,0,0,1,.757-.623,1.708,1.708,0,0,1,.67-.135,1.716,1.716,0,0,1,.964.294,1.729,1.729,0,0,1,.623.759,1.7,1.7,0,0,1,.136.67,1.712,1.712,0,0,1-.294.964,1.741,1.741,0,0,1-.757.623,1.746,1.746,0,0,1-.672.135A1.716,1.716,0,0,1-6492.036-774.3Zm.576-2a.69.69,0,0,0-.253.305.678.678,0,0,0-.054.271.689.689,0,0,0,.118.388.7.7,0,0,0,.307.251.672.672,0,0,0,.269.055.694.694,0,0,0,.388-.119.709.709,0,0,0,.253-.3.711.711,0,0,0,.054-.271.692.692,0,0,0-.118-.388.712.712,0,0,0-.307-.253.7.7,0,0,0-.271-.054A.683.683,0,0,0-6491.46-776.3Zm-.093-1.868a2.579,2.579,0,0,1-1.447-.442,2.6,2.6,0,0,1-.936-1.137,2.559,2.559,0,0,1-.2-.943h0v-.065h0a2.592,2.592,0,0,1,.319-1.2,2.507,2.507,0,0,1,.917-.944,2.559,2.559,0,0,1,.238-.126l-3.638-12.5a1.19,1.19,0,0,0-.888-.82l-1.992-.426a.624.624,0,0,1-.478-.742.624.624,0,0,1,.74-.48l1.99.427a2.434,2.434,0,0,1,1.822,1.683v0l.554,1.9h16.281a1.247,1.247,0,0,1,.967.458,1.243,1.243,0,0,1,.282.789,1.272,1.272,0,0,1-.024.25h0l-1.437,7.071a1.873,1.873,0,0,1-1.535,1.475l-11.758,1.915a1.568,1.568,0,0,0-.484.186,1.265,1.265,0,0,0-.344.3,1.3,1.3,0,0,0-.284.812,1.311,1.311,0,0,0,.225.714,1.349,1.349,0,0,0,.59.484,1.3,1.3,0,0,0,.521.1h11.7a.625.625,0,0,1,.625.625.625.625,0,0,1-.625.625Zm.1-5.164,11.234-1.829a.627.627,0,0,0,.512-.493l1.439-7.071h-15.919Z" transform="translate(6499.674 798)" fill="#676059"/>
  </g>
</svg>
