<svg xmlns="http://www.w3.org/2000/svg" width="24.087" height="24.521" viewBox="0 0 24.087 24.521">
  <path id="パス_6023" data-name="パス 6023" d="M2.4,24.022a2.9,2.9,0,0,1-2.05-4.949L10.678,8.744c.741-.741.621-2.136.564-2.807a4.146,4.146,0,0,1-.024-.418A6.186,6.186,0,0,1,16.612-.469,3.771,3.771,0,0,1,17.084-.5a2.647,2.647,0,0,1,.332.019A.8.8,0,0,1,18.032.787l-.286.4L16.012,3.622A.48.48,0,0,0,15.938,4,.65.65,0,0,0,16.2,4.4L19.056,6.44a.661.661,0,0,0,.385.127.494.494,0,0,0,.411-.2l1.995-2.8a.8.8,0,0,1,1.4.178,3,3,0,0,1,.222.709A6.187,6.187,0,0,1,18.239,11.8l-.117.015c-2.193.281-3.029.716-3.344,1.032L4.449,23.172A2.88,2.88,0,0,1,2.4,24.022ZM17.007.5c-.087,0-.177.01-.268.022a5.186,5.186,0,0,0-4.521,5.02c0,.052.01.183.021.309.07.821.217,2.529-.853,3.6L1.056,19.779a1.9,1.9,0,0,0,2.686,2.686L14.071,12.136c.836-.836,2.64-1.152,3.924-1.316l.11-.014a5.187,5.187,0,0,0,4.384-6.153c-.015-.074-.031-.14-.046-.2l-.083.116-1.694,2.38a1.482,1.482,0,0,1-1.225.616,1.655,1.655,0,0,1-.966-.313L15.62,5.211a1.647,1.647,0,0,1-.661-1A1.468,1.468,0,0,1,15.2,3.041ZM2.434,22.737A1.65,1.65,0,1,1,3.6,22.254,1.638,1.638,0,0,1,2.434,22.737Zm0-2.3a.65.65,0,1,0,.459.191A.645.645,0,0,0,2.435,20.438Z" transform="translate(0.499 0.5)" fill="#676059"/>
</svg>
