<svg id="コンポーネント_22_10" data-name="コンポーネント 22 – 10" xmlns="http://www.w3.org/2000/svg" width="170.529" height="63.057" viewBox="0 0 170.529 63.057">
  <text id="READ_MORE" data-name="READ MORE" transform="translate(0 42.029)" fill="#fff" font-size="16" font-family="YuGothic-Regular, Yu Gothic"><tspan x="0" y="0">READ MORE</tspan></text>
  <line id="線_3" data-name="線 3" x2="95" transform="translate(0.5 61.529)" fill="none" stroke="#fff" stroke-width="1"/>
  <g id="グループ_137" data-name="グループ 137" transform="translate(-1004 -3442.471)">
    <path id="前面オブジェクトで型抜き_1" data-name="前面オブジェクトで型抜き 1" d="M-5184,2292a30.135,30.135,0,0,1-7.13-.853,29.843,29.843,0,0,1-6.515-2.423,30.27,30.27,0,0,1-10.378-8.754l49.726-33.453A29.946,29.946,0,0,1-5154,2262a29.817,29.817,0,0,1-2.357,11.677,29.9,29.9,0,0,1-6.43,9.536,29.9,29.9,0,0,1-9.536,6.429A29.82,29.82,0,0,1-5184,2292Zm-25.7-14.517h0A29.937,29.937,0,0,1-5214,2262a29.817,29.817,0,0,1,2.357-11.677,29.906,29.906,0,0,1,6.43-9.535,29.9,29.9,0,0,1,9.536-6.429A29.813,29.813,0,0,1-5184,2232a30.145,30.145,0,0,1,7.131.853,29.84,29.84,0,0,1,6.516,2.423,30.267,30.267,0,0,1,10.378,8.754Z" transform="translate(6438.279 1486.41) rotate(3)" fill="#fff"/>
  </g>
</svg>
