<svg xmlns="http://www.w3.org/2000/svg" width="36.144" height="12.288" viewBox="0 0 36.144 12.288">
  <path id="パス_2473" data-name="パス 2473" d="M2.208-7.552V0H.416V-10.864H1.792L8.32-3.472v-7.392h1.792V.1H8.976Zm14.608.944v1.9H12.752v2.8h7.312V0H10.976V-10.864h9.088v1.9H12.752v2.352Zm9.424-4.016h1.168l2.208,6.64L31.5-10.848h1.9L30.272.176H29.1L26.816-6.656,24.5.176H23.312l-3.1-11.024h1.9l1.9,6.864Zm8.16,5.04q-.032-.88-.072-1.864t-.1-2.072q-.032-.3-.04-.6t-.024-.6h2.192q-.032.288-.04.576t-.024.576q-.064,1.008-.112,1.992t-.064,1.992l-.08,2.816H34.448ZM33.952.144a1.232,1.232,0,0,1,.368-.92,1.293,1.293,0,0,1,.944-.36,1.273,1.273,0,0,1,.928.36,1.232,1.232,0,0,1,.368.92,1.232,1.232,0,0,1-.368.92,1.273,1.273,0,0,1-.928.36,1.3,1.3,0,0,1-.936-.36A1.218,1.218,0,0,1,33.952.144Z" transform="translate(-0.416 10.864)" fill="#e3491a"/>
</svg>
