<svg xmlns="http://www.w3.org/2000/svg" width="26.368" height="136.048" viewBox="0 0 26.368 136.048">
  <path id="パス_3196" data-name="パス 3196" d="M3.2-21.7,17.12-5.984V-21.7h3.008V.192H18.272L3.872-16.064V0H.832V-21.7ZM19.072,38H.992V16.3h18.08v3.264H4V25.04h8.384V28.3H4v6.432H19.072Zm-.928,38.416-4.96-14.784L8.192,76.416H6.208L0,54.3H3.232l4.16,14.944,4.864-14.464h1.92l4.832,14.5L23.136,54.3h3.232L20.1,76.416ZM9.856,101.584q1.568.192,3.248.48a11.735,11.735,0,0,1,3.088.96,6.178,6.178,0,0,1,2.32,1.888,5.257,5.257,0,0,1,.912,3.232,6,6,0,0,1-.608,2.8,5.487,5.487,0,0,1-1.632,1.92,7.164,7.164,0,0,1-2.352,1.12,10.44,10.44,0,0,1-2.8.368,12.165,12.165,0,0,1-3.5-.512A14.119,14.119,0,0,1,5.3,112.416a15.205,15.205,0,0,1-2.8-2.16,15.99,15.99,0,0,1-2.24-2.72L.9,102.9a19.325,19.325,0,0,0,1.92,3.12,14.306,14.306,0,0,0,2.528,2.608,12.14,12.14,0,0,0,3.1,1.792,9.726,9.726,0,0,0,3.616.672,9.43,9.43,0,0,0,1.52-.128,4.74,4.74,0,0,0,1.408-.448,2.764,2.764,0,0,0,1.024-.9,2.524,2.524,0,0,0,.4-1.472,1.976,1.976,0,0,0-.688-1.7,5.2,5.2,0,0,0-1.712-.8,24.273,24.273,0,0,0-4.448-.768q-1.5-.16-3.136-.48a11.491,11.491,0,0,1-2.992-1.008A6.21,6.21,0,0,1,1.2,101.5a5.147,5.147,0,0,1-.88-3.12,6.734,6.734,0,0,1,.608-2.976A5.6,5.6,0,0,1,2.592,93.36a7.146,7.146,0,0,1,2.464-1.184,11.391,11.391,0,0,1,3.008-.384,9.844,9.844,0,0,1,3.28.544,12.141,12.141,0,0,1,2.9,1.472,12.925,12.925,0,0,1,2.448,2.208,15.632,15.632,0,0,1,1.9,2.752l-.672,4.224a29.447,29.447,0,0,0-2.336-3.584,15.042,15.042,0,0,0-3.04-3.008A7.492,7.492,0,0,0,8,95.088a9.927,9.927,0,0,0-1.7.144,4.889,4.889,0,0,0-1.488.5,2.773,2.773,0,0,0-1.056.992,3.1,3.1,0,0,0-.4,1.664,2.016,2.016,0,0,0,.448,1.376,3.005,3.005,0,0,0,1.168.768,12.162,12.162,0,0,0,1.7.544,16.162,16.162,0,0,0,1.776.336Q9.312,101.52,9.856,101.584Z" transform="translate(0 21.696)" fill="#f5f0ea"/>
</svg>
