<svg xmlns="http://www.w3.org/2000/svg" width="22.88" height="440.144" viewBox="0 0 22.88 440.144">
  <g id="グループ_156" data-name="グループ 156" transform="translate(-66.096 -3432.856)">
    <path id="パス_3195" data-name="パス 3195" d="M11.008.416a11.638,11.638,0,0,1-4.48-.832,9.946,9.946,0,0,1-3.44-2.32A10.421,10.421,0,0,1,.88-6.288,12.748,12.748,0,0,1,.1-10.848a13.079,13.079,0,0,1,.752-4.48,10.171,10.171,0,0,1,2.176-3.584,10.212,10.212,0,0,1,3.44-2.368,11.43,11.43,0,0,1,4.544-.864A11.407,11.407,0,0,1,16.352-20.9l.192.1a9.8,9.8,0,0,1,2.384,1.84,10.1,10.1,0,0,1,1.664,2.368,11.563,11.563,0,0,1,.976,2.752,13.9,13.9,0,0,1,.32,2.992,12.943,12.943,0,0,1-.752,4.464A10.493,10.493,0,0,1,18.976-2.8,9.755,9.755,0,0,1,15.552-.432,11.618,11.618,0,0,1,11.008.416Zm7.84-11.264a9.209,9.209,0,0,0-.56-3.3A7.154,7.154,0,0,0,16.7-16.656a7.121,7.121,0,0,0-2.464-1.616,8.636,8.636,0,0,0-3.232-.576,8.984,8.984,0,0,0-3.248.56,6.805,6.805,0,0,0-2.48,1.616A7.321,7.321,0,0,0,3.7-14.144a9.209,9.209,0,0,0-.56,3.3A9.258,9.258,0,0,0,3.68-7.616,7.251,7.251,0,0,0,5.232-5.088,6.823,6.823,0,0,0,7.7-3.456a8.947,8.947,0,0,0,3.312.576,8.856,8.856,0,0,0,3.232-.56A6.937,6.937,0,0,0,16.7-5.04a7.154,7.154,0,0,0,1.584-2.512A9.209,9.209,0,0,0,18.848-10.848ZM3.2,16.3,17.12,32.016V16.3h3.008V38.192H18.272l-7.334-8.28L3.872,21.936V38H.832V16.3ZM.864,54.3H3.9V72.736H17.12V76H.864Zm2.336,76,13.92,15.712V130.3h3.008v21.888H18.272l-14.4-16.256V152H.832V130.3ZM19.072,190H.992V168.3h18.08v3.264H4v5.472h8.384V180.3H4v6.432H19.072ZM9.856,253.584q1.568.192,3.248.48a11.736,11.736,0,0,1,3.088.96,6.178,6.178,0,0,1,2.32,1.888,5.257,5.257,0,0,1,.912,3.232,6,6,0,0,1-.608,2.8,5.487,5.487,0,0,1-1.632,1.92,7.165,7.165,0,0,1-2.352,1.12,10.44,10.44,0,0,1-2.8.368,12.165,12.165,0,0,1-3.5-.512A14.12,14.12,0,0,1,5.3,264.416a15.2,15.2,0,0,1-2.8-2.16,15.991,15.991,0,0,1-2.24-2.72L.9,254.9a19.324,19.324,0,0,0,1.92,3.12,14.306,14.306,0,0,0,2.528,2.608,12.14,12.14,0,0,0,3.1,1.792,9.725,9.725,0,0,0,3.616.672,9.428,9.428,0,0,0,1.52-.128,4.739,4.739,0,0,0,1.408-.448,2.764,2.764,0,0,0,1.024-.9,2.524,2.524,0,0,0,.4-1.472,1.976,1.976,0,0,0-.688-1.7,5.2,5.2,0,0,0-1.712-.8,24.271,24.271,0,0,0-4.448-.768q-1.5-.16-3.136-.48a11.492,11.492,0,0,1-2.992-1.008A6.21,6.21,0,0,1,1.2,253.5a5.147,5.147,0,0,1-.88-3.12,6.734,6.734,0,0,1,.608-2.976,5.6,5.6,0,0,1,1.664-2.048,7.146,7.146,0,0,1,2.464-1.184,11.391,11.391,0,0,1,3.008-.384,9.844,9.844,0,0,1,3.28.544,12.142,12.142,0,0,1,2.9,1.472,12.924,12.924,0,0,1,2.448,2.208,15.631,15.631,0,0,1,1.9,2.752l-.672,4.224a29.446,29.446,0,0,0-2.336-3.584,15.042,15.042,0,0,0-3.04-3.008A7.492,7.492,0,0,0,8,247.088a9.927,9.927,0,0,0-1.7.144,4.889,4.889,0,0,0-1.488.5,2.773,2.773,0,0,0-1.056.992,3.1,3.1,0,0,0-.4,1.664,2.016,2.016,0,0,0,.448,1.376,3.005,3.005,0,0,0,1.168.768,12.163,12.163,0,0,0,1.7.544,16.158,16.158,0,0,0,1.776.336Q9.312,253.52,9.856,253.584ZM22.048,282.3v3.232H12.672V304H9.664V285.536H.256V282.3Zm-11.04,60.112a11.638,11.638,0,0,1-4.48-.832,9.946,9.946,0,0,1-3.44-2.32A10.421,10.421,0,0,1,.88,335.712a12.748,12.748,0,0,1-.784-4.56,13.079,13.079,0,0,1,.752-4.48,9.984,9.984,0,0,1,5.616-5.952,11.429,11.429,0,0,1,4.544-.864,11.407,11.407,0,0,1,5.344,1.248l.192.1a9.8,9.8,0,0,1,2.384,1.84,10.1,10.1,0,0,1,1.664,2.368,11.563,11.563,0,0,1,.976,2.752,13.9,13.9,0,0,1,.32,2.992,12.943,12.943,0,0,1-.752,4.464,10.493,10.493,0,0,1-2.16,3.584,9.755,9.755,0,0,1-3.424,2.368A11.618,11.618,0,0,1,11.008,342.416Zm7.84-11.264a9.21,9.21,0,0,0-.56-3.3,6.969,6.969,0,0,0-4.048-4.128,8.636,8.636,0,0,0-3.232-.576,8.985,8.985,0,0,0-3.248.56,6.8,6.8,0,0,0-2.48,1.616A7.321,7.321,0,0,0,3.7,327.856a9.927,9.927,0,0,0-.016,6.528,7.251,7.251,0,0,0,1.552,2.528A6.823,6.823,0,0,0,7.7,338.544a8.947,8.947,0,0,0,3.312.576,8.856,8.856,0,0,0,3.232-.56,6.937,6.937,0,0,0,2.464-1.6,7.154,7.154,0,0,0,1.584-2.512A9.209,9.209,0,0,0,18.848,331.152Zm-1.024,45.936a1.322,1.322,0,0,0,1.024-.464,3.412,3.412,0,0,0,.656-1.12,6.527,6.527,0,0,0,.336-1.344,8.522,8.522,0,0,0,.1-1.136v-1.952h3.04v1.952a11.3,11.3,0,0,1-.288,2.448,8.745,8.745,0,0,1-.9,2.384,5.462,5.462,0,0,1-1.584,1.792,3.967,3.967,0,0,1-2.384.7,4.129,4.129,0,0,1-2.576-.816,8.392,8.392,0,0,1-1.872-2q-.352-.544-.768-1.248t-.864-1.568a18.8,18.8,0,0,0-1.408-2.336,3.515,3.515,0,0,0-.912-.944,2.147,2.147,0,0,0-1.232-.336H4.16V380H1.12V358.272H14.368a5.848,5.848,0,0,1,2.48.5,5.134,5.134,0,0,1,1.808,1.376,6.122,6.122,0,0,1,1.12,2.064,8.146,8.146,0,0,1,.384,2.528,7.64,7.64,0,0,1-.384,2.432,5.852,5.852,0,0,1-1.136,2.016,5.383,5.383,0,0,1-1.824,1.36,5.768,5.768,0,0,1-2.448.5H13.12l.56.912q.3.5.656,1.1,1.024,1.76,1.536,2.592a6.411,6.411,0,0,0,.832.976A1.561,1.561,0,0,0,17.824,377.088ZM4.16,367.808H14.368a2.548,2.548,0,0,0,2.08-.848,3.368,3.368,0,0,0,.7-2.224,3.7,3.7,0,0,0-.672-2.256,2.449,2.449,0,0,0-2.112-.912H4.16ZM19.072,418H.992V396.3h18.08v3.264H4v5.472h8.384V408.3H4v6.432H19.072Z" transform="translate(66 3455)" fill="#676059"/>
    <path id="パス_3194" data-name="パス 3194" d="M.768,0V-21.7H3.776V0Z" transform="matrix(0.891, 0.454, -0.454, 0.891, 67.412, 3567.786)" fill="#676059"/>
  </g>
</svg>
