<svg xmlns="http://www.w3.org/2000/svg" width="22.608" height="288.08" viewBox="0 0 22.608 288.08">
  <path id="パス_3193" data-name="パス 3193" d="M6.24-2.912a1.322,1.322,0,0,0,1.024-.464A3.413,3.413,0,0,0,7.92-4.5,6.526,6.526,0,0,0,8.256-5.84a8.522,8.522,0,0,0,.1-1.136V-8.928h3.04v1.952A11.3,11.3,0,0,1,11.1-4.528a8.746,8.746,0,0,1-.9,2.384A5.462,5.462,0,0,1,8.624-.352a3.967,3.967,0,0,1-2.384.7A4.129,4.129,0,0,1,3.664-.464a8.391,8.391,0,0,1-1.872-2q-.352-.544-.768-1.248T.16-5.28A18.8,18.8,0,0,0-1.248-7.616,3.515,3.515,0,0,0-2.16-8.56,2.147,2.147,0,0,0-3.392-8.9H-7.424V0h-3.04V-21.728H2.784a5.848,5.848,0,0,1,2.48.5,5.134,5.134,0,0,1,1.808,1.376,6.122,6.122,0,0,1,1.12,2.064,8.146,8.146,0,0,1,.384,2.528,7.64,7.64,0,0,1-.384,2.432,5.852,5.852,0,0,1-1.136,2.016,5.383,5.383,0,0,1-1.824,1.36,5.767,5.767,0,0,1-2.448.5H1.536l.56.912q.3.5.656,1.1,1.024,1.76,1.536,2.592a6.412,6.412,0,0,0,.832.976A1.561,1.561,0,0,0,6.24-2.912Zm-13.664-9.28H2.784a2.548,2.548,0,0,0,2.08-.848,3.368,3.368,0,0,0,.7-2.224A3.7,3.7,0,0,0,4.9-17.52a2.449,2.449,0,0,0-2.112-.912H-7.424Zm7.36,50.608a11.638,11.638,0,0,1-4.48-.832,9.946,9.946,0,0,1-3.44-2.32,10.421,10.421,0,0,1-2.208-3.552,12.748,12.748,0,0,1-.784-4.56,13.079,13.079,0,0,1,.752-4.48,10.171,10.171,0,0,1,2.176-3.584,10.212,10.212,0,0,1,3.44-2.368,11.43,11.43,0,0,1,4.544-.864A11.407,11.407,0,0,1,5.28,17.1l.192.1a9.8,9.8,0,0,1,2.384,1.84A10.1,10.1,0,0,1,9.52,21.408,11.563,11.563,0,0,1,10.5,24.16a13.9,13.9,0,0,1,.32,2.992,12.943,12.943,0,0,1-.752,4.464A10.493,10.493,0,0,1,7.9,35.2,9.755,9.755,0,0,1,4.48,37.568,11.618,11.618,0,0,1-.064,38.416Zm7.84-11.264a9.209,9.209,0,0,0-.56-3.3,7.154,7.154,0,0,0-1.584-2.512,7.121,7.121,0,0,0-2.464-1.616,8.636,8.636,0,0,0-3.232-.576,8.984,8.984,0,0,0-3.248.56,6.805,6.805,0,0,0-2.48,1.616,7.321,7.321,0,0,0-1.584,2.528,9.209,9.209,0,0,0-.56,3.3,9.258,9.258,0,0,0,.544,3.232A7.251,7.251,0,0,0-5.84,32.912a6.823,6.823,0,0,0,2.464,1.632,8.947,8.947,0,0,0,3.312.576,8.856,8.856,0,0,0,3.232-.56,6.937,6.937,0,0,0,2.464-1.6,7.154,7.154,0,0,0,1.584-2.512A9.209,9.209,0,0,0,7.776,27.152ZM7.92,76,4.432,68.608h-8.8L-7.824,76h-3.392L-1.04,54.3H1.1L11.28,76ZM-2.864,65.344H2.96L.048,59.1ZM.1,101.584q1.568.192,3.248.48a11.735,11.735,0,0,1,3.088.96,6.178,6.178,0,0,1,2.32,1.888,5.257,5.257,0,0,1,.912,3.232,6,6,0,0,1-.608,2.8,5.487,5.487,0,0,1-1.632,1.92,7.164,7.164,0,0,1-2.352,1.12,10.44,10.44,0,0,1-2.8.368,12.165,12.165,0,0,1-3.5-.512,14.119,14.119,0,0,1-3.232-1.424,15.205,15.205,0,0,1-2.8-2.16,15.99,15.99,0,0,1-2.24-2.72l.64-4.64a19.325,19.325,0,0,0,1.92,3.12,14.306,14.306,0,0,0,2.528,2.608,12.14,12.14,0,0,0,3.1,1.792,9.726,9.726,0,0,0,3.616.672,9.43,9.43,0,0,0,1.52-.128,4.74,4.74,0,0,0,1.408-.448,2.764,2.764,0,0,0,1.024-.9,2.524,2.524,0,0,0,.4-1.472,1.976,1.976,0,0,0-.688-1.7,5.2,5.2,0,0,0-1.712-.8,24.273,24.273,0,0,0-4.448-.768q-1.5-.16-3.136-.48a11.491,11.491,0,0,1-2.992-1.008A6.21,6.21,0,0,1-8.56,101.5a5.147,5.147,0,0,1-.88-3.12,6.734,6.734,0,0,1,.608-2.976A5.6,5.6,0,0,1-7.168,93.36,7.146,7.146,0,0,1-4.7,92.176,11.391,11.391,0,0,1-1.7,91.792a9.844,9.844,0,0,1,3.28.544,12.141,12.141,0,0,1,2.9,1.472,12.925,12.925,0,0,1,2.448,2.208,15.632,15.632,0,0,1,1.9,2.752l-.672,4.224a29.447,29.447,0,0,0-2.336-3.584A15.042,15.042,0,0,0,2.784,96.4,7.492,7.492,0,0,0-1.76,95.088a9.927,9.927,0,0,0-1.7.144,4.889,4.889,0,0,0-1.488.5A2.773,2.773,0,0,0-6,96.72a3.1,3.1,0,0,0-.4,1.664,2.016,2.016,0,0,0,.448,1.376,3.005,3.005,0,0,0,1.168.768,12.162,12.162,0,0,0,1.7.544,16.162,16.162,0,0,0,1.776.336Q-.448,101.52.1,101.584ZM10.912,130.3v3.232H1.536V152H-1.472V133.536H-10.88V130.3ZM9.376,190H-8.7V168.3H9.376v3.264H-5.7v5.472H2.688V180.3H-5.7v6.432H9.376ZM6.24,225.088a1.322,1.322,0,0,0,1.024-.464,3.412,3.412,0,0,0,.656-1.12,6.526,6.526,0,0,0,.336-1.344,8.522,8.522,0,0,0,.1-1.136v-1.952h3.04v1.952a11.3,11.3,0,0,1-.288,2.448,8.746,8.746,0,0,1-.9,2.384,5.462,5.462,0,0,1-1.584,1.792,3.967,3.967,0,0,1-2.384.7,4.129,4.129,0,0,1-2.576-.816,8.391,8.391,0,0,1-1.872-2q-.352-.544-.768-1.248T.16,222.72a18.8,18.8,0,0,0-1.408-2.336,3.515,3.515,0,0,0-.912-.944,2.147,2.147,0,0,0-1.232-.336H-7.424V228h-3.04V206.272H2.784a5.848,5.848,0,0,1,2.48.5,5.134,5.134,0,0,1,1.808,1.376,6.122,6.122,0,0,1,1.12,2.064,8.146,8.146,0,0,1,.384,2.528,7.64,7.64,0,0,1-.384,2.432,5.852,5.852,0,0,1-1.136,2.016,5.383,5.383,0,0,1-1.824,1.36,5.768,5.768,0,0,1-2.448.5H1.536l.56.912q.3.5.656,1.1,1.024,1.76,1.536,2.592a6.411,6.411,0,0,0,.832.976A1.561,1.561,0,0,0,6.24,225.088Zm-13.664-9.28H2.784a2.548,2.548,0,0,0,2.08-.848,3.368,3.368,0,0,0,.7-2.224A3.7,3.7,0,0,0,4.9,210.48a2.449,2.449,0,0,0-2.112-.912H-7.424ZM.1,253.584q1.568.192,3.248.48a11.736,11.736,0,0,1,3.088.96,6.178,6.178,0,0,1,2.32,1.888,5.257,5.257,0,0,1,.912,3.232,6,6,0,0,1-.608,2.8,5.487,5.487,0,0,1-1.632,1.92,7.165,7.165,0,0,1-2.352,1.12,10.44,10.44,0,0,1-2.8.368,12.165,12.165,0,0,1-3.5-.512,14.12,14.12,0,0,1-3.232-1.424,15.2,15.2,0,0,1-2.8-2.16,15.991,15.991,0,0,1-2.24-2.72l.64-4.64a19.324,19.324,0,0,0,1.92,3.12,14.306,14.306,0,0,0,2.528,2.608,12.14,12.14,0,0,0,3.1,1.792,9.725,9.725,0,0,0,3.616.672,9.428,9.428,0,0,0,1.52-.128,4.739,4.739,0,0,0,1.408-.448,2.764,2.764,0,0,0,1.024-.9,2.524,2.524,0,0,0,.4-1.472,1.976,1.976,0,0,0-.688-1.7,5.2,5.2,0,0,0-1.712-.8,24.271,24.271,0,0,0-4.448-.768q-1.5-.16-3.136-.48a11.492,11.492,0,0,1-2.992-1.008A6.21,6.21,0,0,1-8.56,253.5a5.147,5.147,0,0,1-.88-3.12,6.734,6.734,0,0,1,.608-2.976,5.6,5.6,0,0,1,1.664-2.048A7.146,7.146,0,0,1-4.7,244.176a11.391,11.391,0,0,1,3.008-.384,9.844,9.844,0,0,1,3.28.544,12.142,12.142,0,0,1,2.9,1.472,12.924,12.924,0,0,1,2.448,2.208,15.631,15.631,0,0,1,1.9,2.752l-.672,4.224a29.446,29.446,0,0,0-2.336-3.584,15.042,15.042,0,0,0-3.04-3.008,7.492,7.492,0,0,0-4.544-1.312,9.927,9.927,0,0,0-1.7.144,4.889,4.889,0,0,0-1.488.5A2.773,2.773,0,0,0-6,248.72a3.1,3.1,0,0,0-.4,1.664,2.016,2.016,0,0,0,.448,1.376,3.005,3.005,0,0,0,1.168.768,12.163,12.163,0,0,0,1.7.544,16.158,16.158,0,0,0,1.776.336Q-.448,253.52.1,253.584Z" transform="translate(11.216 21.728)" fill="#f5f0ea"/>
</svg>
