<svg xmlns="http://www.w3.org/2000/svg" width="276" height="32" viewBox="0 0 276 32">
  <g id="グループ_303" data-name="グループ 303" transform="translate(-183 -4191)">
    <text id="_8A_GARAGE_COFFEE" data-name="8A GARAGE COFFEE" transform="translate(216 4218)" fill="#fff" font-size="24" font-family="YuGothic-Bold, Yu Gothic" font-weight="700"><tspan x="0" y="0">8A GARAGE COFFEE</tspan></text>
    <g id="グループ_89" data-name="グループ 89" transform="translate(183 4191)">
      <path id="パス_15" data-name="パス 15" d="M19.154,19.259a10.225,10.225,0,0,1-2.27,1.489L20.3,26.672H4.7l7.8-13.518,1.653,2.864a4.781,4.781,0,0,0,2.181-1.643L12.5,7.733,0,29.383H25Z" transform="translate(0 -2.713)" fill="#fff"/>
      <path id="パス_16" data-name="パス 16" d="M14.479,0A8.824,8.824,0,0,0,7.553,14.306L9.064,11.69a6.2,6.2,0,1,1,4.422,3.183L12.068,17.33A8.833,8.833,0,1,0,14.479,0" transform="translate(-1.979 -0.001)" fill="#fff"/>
    </g>
  </g>
</svg>
