<svg xmlns="http://www.w3.org/2000/svg" xmlns:xlink="http://www.w3.org/1999/xlink" width="484.215" height="89.899" viewBox="0 0 484.215 89.899">
  <defs>
    <clipPath id="clip-path">
      <rect id="長方形_129" data-name="長方形 129" width="484.215" height="49.932" fill="#fff"/>
    </clipPath>
  </defs>
  <g id="グループ_305" data-name="グループ 305" transform="translate(-440.893 -455.558)">
    <g id="グループ_133" data-name="グループ 133" transform="translate(470.269 455.559)">
      <path id="パス_2851" data-name="パス 2851" d="M85.73.075a23.608,23.608,0,0,1,7.051,1.093,27.991,27.991,0,0,1,6.748,3.167,32.153,32.153,0,0,1,5.994,4.977,30.649,30.649,0,0,1,4.712,6.522l-.451,2.564a45.669,45.669,0,0,0-4.487-6.485,29.126,29.126,0,0,0-5.391-5.052,23.906,23.906,0,0,0-6.484-3.28,24.975,24.975,0,0,0-7.843-1.169,27.025,27.025,0,0,0-5.729.6,15.172,15.172,0,0,0-4.94,1.96,10.006,10.006,0,0,0-3.431,3.657A11.556,11.556,0,0,0,70.2,14.326,7.819,7.819,0,0,0,72.46,20.4a15.337,15.337,0,0,0,5.806,3.2A67.909,67.909,0,0,0,90.1,25.862q2.187.227,5.052.641a51.8,51.8,0,0,1,5.73,1.169,30.628,30.628,0,0,1,5.391,1.96,11.766,11.766,0,0,1,4.035,3.016,11.851,11.851,0,0,1,2.186,7.39,12.606,12.606,0,0,1-1.357,6.107,11.793,11.793,0,0,1-3.62,4.072,15.25,15.25,0,0,1-5.2,2.3,25.683,25.683,0,0,1-6.108.717A29.754,29.754,0,0,1,86.3,51.5a35.275,35.275,0,0,1-8.936-4.6q-.979-.753-2.224-1.847t-2.488-2.337Q71.4,41.47,70.272,40.189a23.088,23.088,0,0,1-1.883-2.413l.451-2.866a31.353,31.353,0,0,0,5.053,6.447,33.168,33.168,0,0,0,6.634,5.09,35.012,35.012,0,0,0,7.654,3.317,28.13,28.13,0,0,0,8.105,1.207,26.672,26.672,0,0,0,5.317-.528,14.54,14.54,0,0,0,4.711-1.809,10.089,10.089,0,0,0,3.394-3.356,9.807,9.807,0,0,0,1.282-5.24,9.854,9.854,0,0,0-.64-3.695,7.82,7.82,0,0,0-1.811-2.714,11.02,11.02,0,0,0-2.752-1.923,19.491,19.491,0,0,0-3.469-1.319q-2.261-.6-5.315-1.169t-6.975-.943q-3.392-.376-7.162-.98a26.231,26.231,0,0,1-6.938-2.074,14.791,14.791,0,0,1-5.279-4.034,10.465,10.465,0,0,1-2.11-6.861A14.551,14.551,0,0,1,69.9,7.766,11.955,11.955,0,0,1,73.59,3.355,15.788,15.788,0,0,1,79.058.867,27.106,27.106,0,0,1,85.73.075" fill="#888078"/>
      <path id="パス_2852" data-name="パス 2852" d="M113.855,3.317V1.13h51.423V3.317H140.471V52.253h-1.658V3.317Z" fill="#888078"/>
      <path id="パス_2853" data-name="パス 2853" d="M191.517,0a26.867,26.867,0,0,1,10.745,2.036A23.289,23.289,0,0,1,215.344,16.06a31.428,31.428,0,0,1,1.734,10.556,30.586,30.586,0,0,1-1.81,10.745,24.388,24.388,0,0,1-5.127,8.369,23.044,23.044,0,0,1-8.068,5.467,29.547,29.547,0,0,1-21.263-.038,23.208,23.208,0,0,1-8.068-5.542,23.855,23.855,0,0,1-5.052-8.407,31.329,31.329,0,0,1-1.734-10.594,30.91,30.91,0,0,1,1.81-10.783,24.316,24.316,0,0,1,5.127-8.407,23.136,23.136,0,0,1,8.03-5.466A27.344,27.344,0,0,1,191.517,0m0,50.9a25.907,25.907,0,0,0,9.916-1.81,22.135,22.135,0,0,0,7.54-5.014,21.555,21.555,0,0,0,4.788-7.691,27.959,27.959,0,0,0,1.658-9.764,27.292,27.292,0,0,0-1.734-9.915,22.47,22.47,0,0,0-4.863-7.691,21.29,21.29,0,0,0-7.54-4.939,26.48,26.48,0,0,0-9.765-1.734,26.2,26.2,0,0,0-9.953,1.809,21.244,21.244,0,0,0-12.29,12.668,27.833,27.833,0,0,0-1.659,9.8,27.478,27.478,0,0,0,1.734,9.99,22.036,22.036,0,0,0,4.863,7.654,21.518,21.518,0,0,0,7.541,4.9,26.447,26.447,0,0,0,9.764,1.734" fill="#888078"/>
      <path id="パス_2854" data-name="パス 2854" d="M261.112,53.157a8.157,8.157,0,0,1-5.316-1.809,20.012,20.012,0,0,1-3.883-4.223q-.9-1.357-1.923-3.166t-2.224-4.072q-1.131-2.111-2.111-3.732t-1.81-2.752a13.888,13.888,0,0,0-3.506-3.469,8.452,8.452,0,0,0-4.788-1.282H221.677v23.6h-1.659V1.055h31.895a12.2,12.2,0,0,1,5.354,1.094,11.324,11.324,0,0,1,3.807,2.94,12.129,12.129,0,0,1,2.3,4.411,19.453,19.453,0,0,1,.754,5.505,16.7,16.7,0,0,1-.792,5.165,12.356,12.356,0,0,1-2.375,4.3,11.489,11.489,0,0,1-9.048,4.033H241.055a11.211,11.211,0,0,1,3.771,3.318,62.194,62.194,0,0,1,4.3,6.786q1.357,2.415,2.375,4.147t1.772,2.865a15.858,15.858,0,0,0,3.28,3.695,6.953,6.953,0,0,0,4.562,1.583,6.119,6.119,0,0,0,4.147-1.432,10.727,10.727,0,0,0,2.677-3.582,18.619,18.619,0,0,0,1.47-4.561,23.9,23.9,0,0,0,.453-4.374V34.91h1.658v2.036a28.406,28.406,0,0,1-.527,5.165,19.527,19.527,0,0,1-1.772,5.278,13.036,13.036,0,0,1-3.2,4.11,7.33,7.33,0,0,1-4.9,1.658m-9.2-26.918q5.127,0,7.842-3.2a12,12,0,0,0,2.714-8.03,14.94,14.94,0,0,0-.679-4.6,10.529,10.529,0,0,0-2-3.657,9.454,9.454,0,0,0-3.279-2.45,10.878,10.878,0,0,0-4.6-.9H221.677V26.239Z" fill="#888078"/>
      <path id="パス_2855" data-name="パス 2855" d="M292.025,52.253V34.534l-20.132-33.4h2.337L292.855,31.97,311.629,1.131h2.187l-20.057,33.1V52.253Z" fill="#888078"/>
      <path id="パス_2856" data-name="パス 2856" d="M358.378,0a26.867,26.867,0,0,1,10.745,2.036A23.289,23.289,0,0,1,382.2,16.06a31.428,31.428,0,0,1,1.734,10.556,30.586,30.586,0,0,1-1.81,10.745A24.388,24.388,0,0,1,377,45.73a23.044,23.044,0,0,1-8.068,5.467,29.547,29.547,0,0,1-21.263-.038,23.208,23.208,0,0,1-8.068-5.542,23.855,23.855,0,0,1-5.052-8.407,31.329,31.329,0,0,1-1.734-10.594,30.91,30.91,0,0,1,1.81-10.783,24.316,24.316,0,0,1,5.127-8.407,23.136,23.136,0,0,1,8.03-5.466A27.344,27.344,0,0,1,358.378,0m0,50.9a25.907,25.907,0,0,0,9.916-1.81,22.135,22.135,0,0,0,7.54-5.014,21.555,21.555,0,0,0,4.788-7.691,27.959,27.959,0,0,0,1.658-9.764,27.292,27.292,0,0,0-1.734-9.915,22.469,22.469,0,0,0-4.863-7.691,21.29,21.29,0,0,0-7.54-4.939,26.481,26.481,0,0,0-9.765-1.734,26.2,26.2,0,0,0-9.953,1.809,21.245,21.245,0,0,0-12.29,12.668,27.833,27.833,0,0,0-1.659,9.8,27.478,27.478,0,0,0,1.734,9.99,22.036,22.036,0,0,0,4.863,7.654,21.518,21.518,0,0,0,7.541,4.9,26.447,26.447,0,0,0,9.764,1.734" fill="#888078"/>
      <path id="パス_2857" data-name="パス 2857" d="M424.581,1.131V3.393H388.087V26.315h20.132v2.262H388.087V52.253h-1.659V1.131Z" fill="#888078"/>
      <path id="パス_2850" data-name="パス 2850" d="M24.731,3.317h.151L37.474,30.386H12.139ZM23.9,1.131,0,52.253H1.96l9.124-19.6h27.37l9.2,19.6h1.885L25.561,1.131Z" fill="#888078"/>
    </g>
    <g id="グループ_123" data-name="グループ 123" transform="translate(440.893 495.526)">
      <g id="グループ_122" data-name="グループ 122" transform="translate(0 0)" clip-path="url(#clip-path)">
        <path id="パス_2520" data-name="パス 2520" d="M21.267,0A16.53,16.53,0,0,0,8.293,26.792l2.834-4.906a11.462,11.462,0,1,1,10.139,6.126,11.568,11.568,0,0,1-1.861-.164l-2.66,4.607A16.542,16.542,0,1,0,21.267,0" transform="translate(2.135 0.001)" fill="#fff"/>
        <path id="パス_2521" data-name="パス 2521" d="M46.8,47.006,35.859,28.052a19.114,19.114,0,0,1-4.25,2.788l6.4,11.092H8.789l11.142-19.3L21.74,19.5,23.4,16.624l3.1,5.362a8.973,8.973,0,0,0,4.083-3.078L23.4,6.473,17.347,16.961l-7.119,12.33L0,47.006Z" transform="translate(0 2.926)" fill="#fff"/>
        <path id="パス_2522" data-name="パス 2522" d="M156.23,31.781l-2.476-9.446a4.76,4.76,0,0,0-2.425-8.86H145.87V31.781h2.881V23.006h2.2l2.3,8.776Zm-7.479-15.427h2.579a1.885,1.885,0,0,1,0,3.771h-2.579Z" transform="translate(65.928 6.091)" fill="#fff"/>
        <path id="パス_2523" data-name="パス 2523" d="M211.31,16.354V13.475h-8.657V31.781h8.657V28.9h-5.776v-5.9h4.757V20.125h-4.757V16.354Z" transform="translate(91.591 6.091)" fill="#fff"/>
        <path id="パス_2524" data-name="パス 2524" d="M113.816,32.267A5.772,5.772,0,0,1,108.05,26.5V18.96a5.767,5.767,0,0,1,11.177-2l-2.7,1a2.886,2.886,0,0,0-5.593,1V26.5a2.885,2.885,0,1,0,5.77,0V23.133h-2.416V20.252h5.3V26.5a5.774,5.774,0,0,1-5.767,5.766" transform="translate(48.835 5.964)" fill="#fff"/>
        <path id="パス_2525" data-name="パス 2525" d="M189.774,32.267a5.772,5.772,0,0,1-5.766-5.766V18.96a5.767,5.767,0,0,1,11.176-2l-2.7,1a2.886,2.886,0,0,0-5.593,1V26.5a2.885,2.885,0,1,0,5.77,0V23.133h-2.416V20.252h5.3V26.5a5.774,5.774,0,0,1-5.767,5.766" transform="translate(83.165 5.964)" fill="#fff"/>
        <path id="パス_2526" data-name="パス 2526" d="M68.488,21.725,69.6,17.471l-1.047-4H59.962l-1.048,4,1.115,4.254L58.52,27.477l1.118,4.256h9.24l1.117-4.256Zm-6.3-5.371h4.148l.295,1.117-.871,3.319H62.761l-.87-3.319Zm4.474,12.5h-4.8l-.36-1.375,1-3.8h3.524l1,3.8Z" transform="translate(26.449 6.09)" fill="#fff"/>
        <path id="パス_2527" data-name="パス 2527" d="M78.947,13.441,74.137,31.8h2.978l.97-3.7h6.039l.971,3.7h2.977l-4.81-18.356ZM78.84,25.214,81.1,16.574l2.264,8.639Z" transform="translate(33.507 6.075)" fill="#fff"/>
        <path id="パス_2528" data-name="パス 2528" d="M130.38,13.441,125.57,31.8h2.978l.97-3.7h6.039l.971,3.7H139.5l-4.81-18.356Zm-.107,11.773,2.265-8.639,2.264,8.639Z" transform="translate(56.753 6.075)" fill="#fff"/>
        <path id="パス_2529" data-name="パス 2529" d="M168.519,13.441,163.709,31.8h2.978l.968-3.7h6.04l.97,3.7h2.977l-4.809-18.356Zm-.107,11.773,2.265-8.639,2.262,8.639Z" transform="translate(73.99 6.075)" fill="#fff"/>
        <path id="パス_2530" data-name="パス 2530" d="M336.185,16.356V13.474h-8.657V31.782h8.657V28.9h-5.777V23h4.757V20.126h-4.757V16.356Z" transform="translate(148.03 6.09)" fill="#fff"/>
        <path id="パス_2531" data-name="パス 2531" d="M318.52,16.356V13.474h-8.655V31.782h8.655V28.9h-5.777V23H317.5V20.126h-4.757V16.356Z" transform="translate(140.047 6.09)" fill="#fff"/>
        <path id="パス_2532" data-name="パス 2532" d="M299.04,16.356V13.474h-8.655V31.782h2.878V23h4.757V20.126h-4.757V16.356Z" transform="translate(131.243 6.09)" fill="#fff"/>
        <path id="パス_2533" data-name="パス 2533" d="M238.7,32.267a5.787,5.787,0,0,0,5.409-3.768l-2.7-1a2.886,2.886,0,0,1-5.593-1V18.961a2.886,2.886,0,0,1,5.593-1l2.7-1a5.766,5.766,0,0,0-11.174,2V26.5a5.77,5.77,0,0,0,5.766,5.764" transform="translate(105.276 5.964)" fill="#fff"/>
        <path id="パス_2534" data-name="パス 2534" d="M257.026,13.194a5.773,5.773,0,0,0-5.766,5.766V26.5a5.766,5.766,0,0,0,11.531,0V18.958a5.772,5.772,0,0,0-5.766-5.764M259.911,26.5a2.885,2.885,0,0,1-5.77,0V18.96a2.885,2.885,0,0,1,5.77,0Z" transform="translate(113.56 5.964)" fill="#fff"/>
        <path id="パス_2535" data-name="パス 2535" d="M279.978,16.356V13.474h-8.655V31.782H274.2V23h4.757V20.126H274.2V16.356Z" transform="translate(122.627 6.09)" fill="#fff"/>
      </g>
    </g>
  </g>
</svg>
